<svg xmlns="http://www.w3.org/2000/svg" width="1920" height="1080" viewBox="0 0 1920 1080" version="1.1"><path d="M 621.750 301.737 C 624.638 301.939, 629.362 301.939, 632.250 301.737 C 635.138 301.535, 632.775 301.370, 627 301.370 C 621.225 301.370, 618.862 301.535, 621.750 301.737 M 468.789 362.741 C 472.248 362.937, 477.648 362.936, 480.789 362.738 C 483.930 362.540, 481.100 362.380, 474.500 362.382 C 467.900 362.384, 465.330 362.546, 468.789 362.741 M 636.750 427.747 C 644.038 427.918, 655.962 427.918, 663.250 427.747 C 670.538 427.577, 664.575 427.437, 650 427.437 C 635.425 427.437, 629.462 427.577, 636.750 427.747 M 988.807 428.747 C 995.576 428.921, 1006.376 428.920, 1012.807 428.746 C 1019.238 428.572, 1013.700 428.431, 1000.500 428.431 C 987.300 428.432, 982.038 428.574, 988.807 428.747 M 397.797 460.745 C 402.361 460.930, 409.561 460.929, 413.797 460.742 C 418.034 460.555, 414.300 460.404, 405.500 460.405 C 396.700 460.406, 393.234 460.559, 397.797 460.745 M 786.750 461.747 C 792.938 461.922, 803.063 461.922, 809.250 461.747 C 815.438 461.571, 810.375 461.428, 798 461.428 C 785.625 461.428, 780.563 461.571, 786.750 461.747 M 510.574 487.250 C 509.726 490.171, 478.886 689.138, 479.178 689.803 C 479.355 690.205, 488.363 698.964, 499.196 709.267 L 518.892 728 594.946 728 C 666.704 728, 671.001 727.901, 671.021 726.250 C 671.033 725.288, 672.120 713.250, 673.436 699.500 L 675.829 674.500 663.304 653.250 L 650.779 632 628.390 632 C 611.142 632, 606.001 631.713, 606.005 630.750 C 606.010 629.341, 609.627 597.793, 610.534 591.250 L 611.123 587 647.561 587 C 676.050 587, 683.998 586.727, 683.992 585.750 C 683.988 585.063, 684.937 574.111, 686.100 561.413 L 688.214 538.327 676.918 512.163 L 665.622 486 588.279 486 C 527.266 486, 510.861 486.264, 510.574 487.250 M 704.947 492.250 C 704.918 494.038, 700.930 539.825, 696.085 594 L 687.276 692.500 698.388 711.708 L 709.500 730.917 785.250 730.958 C 826.913 730.981, 861.009 730.888, 861.020 730.750 C 861.032 730.612, 862.342 687.973, 863.933 635.995 L 866.825 541.490 863.441 516.495 C 861.579 502.748, 860.044 490.938, 860.028 490.250 C 860.006 489.261, 843.818 489, 782.500 489 L 705 489 704.947 492.250 M 895.628 508.250 C 895.290 516.638, 894.260 562.503, 893.340 610.172 L 891.667 696.845 893.991 715.922 L 896.314 735 971.915 735 L 1047.515 735 1052.310 715.750 L 1057.104 696.500 1054.098 609 C 1052.445 560.875, 1050.800 515.087, 1050.442 507.250 L 1049.792 493 973.017 493 L 896.242 493 895.628 508.250 M 1081.956 500.750 C 1081.304 503.913, 1078.844 515.434, 1076.489 526.353 L 1072.207 546.206 1076.075 638.853 C 1078.203 689.809, 1079.956 732.518, 1079.972 733.762 L 1080 736.024 1117.750 735.762 L 1155.500 735.500 1165.178 717 L 1174.856 698.500 1173.961 686.500 C 1173.469 679.900, 1172.822 672.138, 1172.524 669.250 L 1171.983 664 1198.241 663.976 L 1224.500 663.952 1237.167 642.626 L 1249.833 621.300 1247.167 594.566 C 1245.700 579.862, 1244.139 568.193, 1243.697 568.635 C 1243.256 569.077, 1243.191 568.665, 1243.554 567.720 C 1244.130 566.219, 1243.498 566, 1238.597 566 L 1232.980 566 1237.650 556.750 L 1242.321 547.500 1240.064 523.500 C 1238.823 510.300, 1237.577 498.488, 1237.295 497.250 L 1236.783 495 1159.962 495 L 1083.142 495 1081.956 500.750 M 1265.191 511.250 C 1261.358 518.538, 1255.461 530.026, 1252.087 536.781 L 1245.954 549.062 1247.965 569.281 C 1249.072 580.401, 1250.235 591.413, 1250.550 593.750 L 1251.123 598 1268.973 598 L 1286.824 598 1287.407 601.750 C 1287.727 603.813, 1291.142 633.625, 1294.995 668 C 1298.847 702.375, 1302.276 732.413, 1302.613 734.750 L 1303.227 739 1340.571 739 L 1377.915 739 1397.957 720.791 C 1414.081 706.142, 1417.995 702.085, 1417.974 700.041 C 1417.960 698.643, 1414.219 673.285, 1409.661 643.689 L 1401.374 589.878 1417.687 570.473 C 1427.472 558.833, 1434 550.224, 1434 548.960 C 1434 547.801, 1432.200 536.119, 1430 523 C 1427.800 509.881, 1426 498.890, 1426 498.574 C 1426 498.258, 1391.386 498, 1349.081 498 L 1272.161 498 1265.191 511.250 M 507.641 589.750 C 500.028 639.663, 493.589 681.288, 493.332 682.250 C 492.891 683.905, 496.808 684, 565.387 684 L 637.909 684 638.431 680.750 C 639.033 676.994, 642 648.648, 642 646.650 C 642 645.565, 634.365 645.175, 601.773 644.595 C 579.648 644.202, 561.414 643.747, 561.251 643.585 C 561.089 643.422, 564.116 619.415, 567.978 590.236 C 571.840 561.056, 575 536.466, 575 535.591 C 575 534.163, 579.039 534, 614.363 534 L 653.726 534 654.856 523.750 C 655.477 518.112, 656.279 510.238, 656.637 506.250 L 657.287 499 589.385 499 L 521.483 499 507.641 589.750 M 715 506.559 C 715 509.066, 714.644 510.898, 714.209 510.629 C 713.774 510.360, 713.578 511.571, 713.773 513.320 C 713.968 515.069, 712.083 540.350, 709.583 569.500 C 702.666 650.171, 700 682.225, 700 684.726 L 700 687 731 687 C 748.050 687, 762 686.792, 762 686.537 C 762 684.224, 766.098 621.021, 766.557 616.250 L 767.159 610 776.580 610 L 786 610 786 614.883 C 786 620.044, 783.464 666.104, 782.457 679.250 L 781.863 687 812.870 687 L 843.877 687 844.393 682.750 C 844.677 680.413, 845.384 662.750, 845.965 643.500 C 846.546 624.250, 847.289 604.563, 847.617 599.750 L 848.212 591 838.106 591 L 828 591 828 585.125 C 828 581.894, 828.281 577.844, 828.625 576.125 L 829.250 573 838.972 573 L 848.694 573 849.370 547.750 C 849.742 533.862, 850.327 517.888, 850.670 512.250 L 851.295 502 783.147 502 L 715 502 715 506.559 M 904.576 537.243 C 903.262 598.452, 902.026 666.688, 902.013 678.750 L 902 691 933 691 L 964 691 964 652.500 L 964 614 973.346 614 L 982.691 614 983.342 626.750 C 983.699 633.763, 983.994 651.087, 983.996 665.250 L 984 691 1015.127 691 L 1046.254 691 1045.515 665.250 C 1045.109 651.087, 1043.814 609.575, 1042.638 573 L 1040.500 506.500 972.873 506.243 L 905.246 505.986 904.576 537.243 M 1091.996 509.750 C 1091.990 514.746, 1099.962 678.348, 1100.572 685.750 L 1101.171 693 1132.113 693 L 1163.056 693 1162.490 686.750 C 1161.485 675.641, 1158 623.658, 1158 619.770 L 1158 616 1197.500 616 L 1237 616 1237 612.629 C 1237 609.302, 1234.057 579.721, 1233.689 579.359 C 1233.585 579.256, 1215.838 578.842, 1194.250 578.440 C 1166.793 577.928, 1154.982 577.376, 1154.939 576.604 C 1154.905 575.997, 1154.333 568.188, 1153.669 559.250 L 1152.460 543 1191.230 543 L 1230 543 1229.980 540.250 C 1229.945 535.363, 1227.068 508.920, 1226.466 507.945 C 1226.109 507.367, 1199.880 507, 1158.941 507 L 1092 507 1091.996 509.750 M 1280.016 510.750 C 1280.025 511.163, 1280.924 519.150, 1282.015 528.500 C 1283.105 537.850, 1283.998 545.612, 1283.998 545.750 C 1283.999 545.888, 1292.725 546, 1303.389 546 L 1322.777 546 1323.354 549.250 C 1324.046 553.146, 1342 693.442, 1342 694.950 C 1342 695.661, 1352.014 696, 1373 696 C 1390.050 696, 1404 695.677, 1404 695.282 C 1404 694.887, 1399.050 661.379, 1393 620.820 C 1386.950 580.260, 1382 546.833, 1382 546.538 C 1382 546.242, 1390.475 546, 1400.833 546 C 1411.192 546, 1419.868 545.799, 1420.113 545.553 C 1420.658 545.009, 1415.352 512.379, 1414.493 510.989 C 1413.770 509.819, 1279.991 509.581, 1280.016 510.750 M 770.599 550.750 C 770.231 558.313, 769.669 566.413, 769.351 568.750 L 768.773 573 778.758 573 L 788.744 573 789.403 558.750 C 789.766 550.913, 790.313 542.813, 790.619 540.750 L 791.176 537 781.223 537 L 771.270 537 770.599 550.750 M 963.393 542.582 C 963.727 543.452, 964 551.552, 964 560.582 L 964 577 973.500 577 L 983 577 983 559 L 983 541 972.893 541 C 964.088 541, 962.864 541.204, 963.393 542.582" stroke="none" fill="#10152f" fill-rule="evenodd"/><path d="M 576 531.349 C 576 533.256, 589.332 533.989, 624.133 533.995 C 651.928 534, 652.782 533.941, 653.290 532 C 653.806 530.025, 653.320 530, 614.906 530 C 582.923 530, 576 530.240, 576 531.349 M 772 534.355 C 772 535.299, 774.050 535.904, 778.750 536.348 C 789.803 537.392, 791 537.260, 791 535 C 791 533.140, 790.333 533, 781.500 533 C 774.173 533, 772 533.310, 772 534.355 M 963 539 C 963 540.867, 963.667 541, 973 541 C 982.333 541, 983 540.867, 983 539 C 983 537.133, 982.333 537, 973 537 C 963.667 537, 963 537.133, 963 539 M 1152 539.988 C 1152 541.970, 1152.591 542, 1191.073 542 C 1227.748 542, 1230.126 541.893, 1229.810 540.250 C 1229.497 538.625, 1226.713 538.481, 1190.737 538.238 C 1152.505 537.980, 1152 538.003, 1152 539.988 M 1284.185 542.728 C 1284.495 544.340, 1286.274 544.525, 1303.840 544.772 C 1321.869 545.026, 1323.132 544.926, 1322.815 543.272 C 1322.505 541.660, 1320.726 541.475, 1303.160 541.228 C 1285.131 540.974, 1283.868 541.074, 1284.185 542.728 M 1381.185 542.728 C 1381.495 544.340, 1383.274 544.525, 1400.840 544.772 C 1418.869 545.026, 1420.132 544.926, 1419.815 543.272 C 1419.505 541.660, 1417.726 541.475, 1400.160 541.228 C 1382.131 540.974, 1380.868 541.074, 1381.185 542.728 M 1094.352 548.250 C 1094.699 551.138, 1094.987 554.962, 1094.991 556.750 L 1095 560 1104.642 560 L 1114.285 560 1113.642 553.853 C 1113.289 550.473, 1113 546.648, 1113 545.353 C 1113 543.045, 1112.816 543, 1103.361 543 L 1093.721 543 1094.352 548.250 M 1324.420 551.711 C 1324.783 554.895, 1325.323 558.737, 1325.620 560.250 L 1326.159 563 1335.625 563 L 1345.091 563 1344.490 559.750 C 1344.159 557.962, 1343.572 554.250, 1343.184 551.500 L 1342.480 546.500 1333.120 546.211 L 1323.760 545.922 1324.420 551.711 M 513.680 554.250 C 513.385 555.487, 512.848 558.750, 512.488 561.500 C 512.127 564.250, 511.614 567.288, 511.349 568.250 C 510.913 569.828, 511.803 570, 520.433 570 C 529.275 570, 530 570.149, 530 571.964 C 530 573.761, 529.176 573.952, 520.260 574.214 L 510.521 574.500 509.854 579 C 509.487 581.475, 505.770 605.662, 501.594 632.750 C 497.417 659.837, 494 682.225, 494 682.500 C 494 682.775, 526.335 683, 565.857 683 L 637.713 683 639.435 665.750 C 640.383 656.263, 641.378 647.712, 641.646 646.750 C 642.106 645.104, 639.700 645, 601.092 645 L 560.050 645 560.523 642.250 C 561.191 638.369, 567.764 587.791, 568.581 580.250 L 569.258 574 559.723 574 C 550.680 574, 550.214 573.897, 550.710 572 C 551.208 570.096, 550.741 570, 541.005 570 L 530.777 570 531.336 566.750 C 531.643 564.962, 532.195 560.913, 532.562 557.750 L 533.230 552 523.724 552 C 514.690 552, 514.190 552.112, 513.680 554.250 M 711 557.853 C 711 559.423, 710.711 563.473, 710.358 566.853 L 709.715 573 719.358 573 C 728.274 573, 729 573.148, 729 574.964 C 729 576.762, 728.176 576.952, 719.256 577.214 L 709.513 577.500 705.397 626 C 703.134 652.675, 701.068 677.094, 700.807 680.264 L 700.333 686.028 730.917 685.764 L 761.500 685.500 763.791 648.500 C 765.051 628.150, 766.301 610.870, 766.567 610.101 C 766.958 608.972, 768.910 608.824, 776.676 609.334 C 781.969 609.682, 786.491 610.158, 786.726 610.392 C 786.960 610.627, 786.218 626.503, 785.076 645.672 C 783.934 664.841, 783 681.757, 783 683.263 L 783 686 813.500 686 L 844 686 844.019 681.250 C 844.029 678.638, 844.694 659.850, 845.497 639.500 C 846.299 619.150, 846.966 600.138, 846.978 597.250 L 847 592 837.559 592 C 832.366 592, 827.928 591.663, 827.695 591.250 C 827.463 590.837, 827.493 586.563, 827.762 581.750 L 828.251 573 838.125 573 L 848 573 848 564 L 848 555 838.500 555 L 829 555 828.989 560.250 C 828.983 563.138, 828.699 567.188, 828.358 569.250 L 827.738 573 817.869 573 C 808.009 573, 808 573.002, 808 575.500 C 808 577.991, 807.967 578, 798.500 578 L 789 578 789 575.465 L 789 572.930 778.750 573.215 C 768.811 573.491, 768.490 573.572, 768.164 575.879 C 767.845 578.130, 767.548 578.225, 762.664 577.638 C 759.824 577.297, 755.668 577.013, 753.429 577.009 L 749.357 577 749.802 566 L 750.247 555 730.623 555 L 711 555 711 557.853 M 904.599 572.250 C 904.038 584.516, 902.184 689.189, 902.518 689.750 C 902.600 689.887, 916.242 690.297, 932.833 690.661 L 963 691.323 963 652.661 L 963 614 973.500 614 L 984 614 984 634.340 C 984 645.527, 984.296 662.852, 984.658 672.840 L 985.316 691 1015.718 691 L 1046.121 691 1045.557 681.750 C 1045.247 676.663, 1044.545 655.625, 1043.999 635 C 1043.452 614.375, 1042.735 592.888, 1042.406 587.250 L 1041.808 577 1032.404 577 L 1023 577 1023 571.125 C 1023 567.894, 1022.719 563.844, 1022.375 562.125 L 1021.750 559 1012.375 559 L 1003 559 1003 568 L 1003 577 993 577 L 983 577 983 579.500 C 983 581.991, 982.967 582, 973.500 582 C 964.033 582, 964 581.991, 964 579.500 L 964 577 953.500 577 L 943 577 943 579.500 C 943 581.991, 942.967 582, 933.500 582 L 924 582 924 570.500 L 924 559 914.602 559 L 905.205 559 904.599 572.250 M 1114.741 560.592 C 1114.415 560.918, 1114.408 566.093, 1114.724 572.092 L 1115.300 583 1105.589 583 L 1095.879 583 1096.480 592.250 C 1097.388 606.219, 1101 682.339, 1101 687.492 L 1101 692 1131.500 692 C 1160.315 692, 1162 691.900, 1162 690.182 C 1162 689.182, 1160.877 672.420, 1159.505 652.932 C 1158.132 633.444, 1157.007 616.938, 1157.005 616.250 C 1157.001 615.271, 1165.673 615, 1197.045 615 L 1237.091 615 1236.574 611.750 C 1236.290 609.962, 1235.534 602.763, 1234.895 595.750 L 1233.732 583 1214.366 583 C 1195.667 583, 1195 582.931, 1195 581 C 1195 579.065, 1194.333 579, 1174.641 579 L 1154.282 579 1153.744 570.372 C 1153.390 564.706, 1152.741 561.451, 1151.853 560.888 C 1150.346 559.933, 1115.676 559.657, 1114.741 560.592 M 1345.368 566.750 C 1345.658 568.263, 1346.188 572.313, 1346.546 575.750 L 1347.196 582 1357.098 582 C 1366.333 582, 1367 582.135, 1367 584 C 1367 585.930, 1366.333 586, 1348 586 C 1337.550 586, 1329 586.337, 1329 586.748 C 1329 588.255, 1342.080 690.571, 1342.552 692.750 L 1343.038 695 1373.019 695 C 1396.324 695, 1403.006 694.722, 1403.025 693.750 C 1403.039 693.063, 1399.331 667.413, 1394.786 636.750 L 1386.522 581 1376.922 581 L 1367.322 581 1366.057 572.500 L 1364.793 564 1354.817 564 L 1344.841 564 1345.368 566.750 M 1135.710 581 C 1136.187 582.823, 1137.074 583, 1145.724 583 C 1153.967 583, 1155.134 582.792, 1154.607 581.418 C 1154.273 580.548, 1154 579.648, 1154 579.418 C 1154 579.188, 1149.767 579, 1144.594 579 C 1135.680 579, 1135.215 579.105, 1135.710 581" stroke="none" fill="#ffffff" fill-rule="evenodd"/><path d="M 521.543 501.250 C 521.271 502.488, 519.442 514.075, 517.478 527 C 515.514 539.925, 513.769 551.400, 513.600 552.500 C 513.430 553.600, 513.484 553.938, 513.719 553.250 C 514.021 552.367, 516.950 552, 523.689 552 L 533.230 552 532.562 557.750 C 532.195 560.913, 531.643 564.962, 531.336 566.750 L 530.777 570 541.005 570 C 550.741 570, 551.208 570.096, 550.710 572 C 550.215 573.894, 550.680 574, 559.510 574 C 565.579 574, 568.965 574.396, 569.212 575.136 C 569.420 575.760, 570.607 568.223, 571.850 558.386 C 573.092 548.549, 574.360 539.038, 574.666 537.250 L 575.223 534 582.361 533.804 L 589.500 533.608 582.750 533.258 C 577.671 532.995, 576 532.549, 576 531.454 C 576 530.207, 581.545 530, 615 530 C 636.450 530, 654.009 529.663, 654.020 529.250 C 654.031 528.837, 654.697 522.425, 655.500 515 C 656.303 507.575, 656.969 500.938, 656.980 500.250 C 656.996 499.262, 642.848 499, 589.519 499 L 522.038 499 521.543 501.250 M 715.568 504.250 C 715.309 505.488, 714.394 515.275, 713.535 526 C 712.675 536.725, 711.711 547.638, 711.392 550.250 L 710.812 555 730.530 555 L 750.247 555 749.807 565.863 L 749.368 576.727 758.350 577.364 C 763.290 577.715, 767.503 577.830, 767.712 577.621 C 768.236 577.097, 769.795 560.741, 770.560 547.750 L 771.192 537 776.346 536.820 L 781.500 536.640 776.750 536.265 C 773.447 536.005, 772 535.450, 772 534.445 C 772 533.285, 773.901 533, 781.647 533 L 791.295 533 790.661 543.250 C 790.312 548.888, 789.728 559.013, 789.363 565.750 L 788.700 578 798.350 578 C 807.977 578, 808 577.994, 808 575.500 C 808 573.002, 808.009 573, 817.869 573 L 827.738 573 828.358 569.250 C 828.699 567.188, 828.983 563.138, 828.989 560.250 L 829 555 838.448 555 L 847.895 555 848.198 560.250 C 848.364 563.138, 848.853 553.125, 849.285 538 C 849.717 522.875, 850.331 508.587, 850.649 506.250 L 851.227 502 783.633 502 L 716.038 502 715.568 504.250 M 905 526.843 C 905 538.307, 904.834 553.044, 904.632 559.593 C 904.429 566.142, 904.450 568.688, 904.678 565.250 L 905.091 559 914.546 559 L 924 559 924 570.500 L 924 582 933.500 582 C 942.967 582, 943 581.991, 943 579.500 L 943 577 953 577 L 963 577 963 557 L 963 537 973 537 L 983 537 983 557 L 983 577 973.500 577 C 964.033 577, 964 577.009, 964 579.500 C 964 581.991, 964.033 582, 973.500 582 C 982.967 582, 983 581.991, 983 579.500 L 983 577 993 577 L 1003 577 1003 568 L 1003 559 1012.375 559 L 1021.750 559 1022.375 562.125 C 1022.719 563.844, 1023 567.894, 1023 571.125 L 1023 577 1032.500 577 L 1042 577 1042 582.167 C 1042 585.008, 1042.198 587.135, 1042.440 586.893 C 1042.746 586.587, 1040.441 509.367, 1040.033 506.250 C 1040.015 506.113, 1009.625 506, 972.500 506 L 905 506 905 526.843 M 1092.457 516.589 C 1092.788 522.040, 1093.310 530.212, 1093.619 534.750 L 1094.180 543 1103.590 543 C 1112.804 543, 1113 543.049, 1113 545.353 C 1113 546.648, 1113.289 550.473, 1113.642 553.853 L 1114.285 560 1104.642 560 L 1095 560 1095.011 567.750 C 1095.017 572.013, 1095.301 577.188, 1095.642 579.250 L 1096.262 583 1105.753 583 L 1115.244 583 1114.872 571.750 L 1114.500 560.500 1131.500 560.215 C 1150.911 559.889, 1152.713 560.141, 1153.270 563.252 C 1153.748 565.930, 1153.149 555.692, 1152.393 548.262 L 1151.859 543.023 1191.180 542.750 L 1230.500 542.476 1191.250 542.238 C 1152.598 542.004, 1152 541.969, 1152 539.977 C 1152 537.977, 1152.430 537.957, 1190.988 538.227 C 1225.248 538.467, 1229.927 538.318, 1229.566 537 C 1229.340 536.175, 1228.602 529.313, 1227.927 521.750 L 1226.700 508 1181.100 507.998 C 1156.020 507.996, 1125.680 507.699, 1113.678 507.336 L 1091.856 506.677 1092.457 516.589 M 1280.768 510.566 C 1280.481 510.852, 1283.230 536.848, 1283.957 540.728 C 1283.981 540.854, 1292.662 541.079, 1303.250 541.228 L 1322.500 541.500 1323.118 545 C 1323.458 546.925, 1323.796 547.921, 1323.868 547.212 C 1323.968 546.242, 1326.273 545.996, 1333.240 546.212 L 1342.480 546.500 1343.184 551.500 C 1343.572 554.250, 1344.159 557.962, 1344.490 559.750 L 1345.091 563 1335.619 563 C 1328.936 563, 1326.021 562.632, 1325.719 561.750 C 1325.484 561.063, 1325.413 561.400, 1325.560 562.500 C 1325.708 563.600, 1326.402 569.337, 1327.103 575.250 L 1328.377 586 1347.688 586 C 1366.333 586, 1367 585.931, 1367 584 C 1367 582.135, 1366.333 582, 1357.098 582 L 1347.196 582 1346.546 575.750 C 1346.188 572.313, 1345.658 568.263, 1345.368 566.750 L 1344.841 564 1354.817 564 L 1364.793 564 1366.057 572.500 L 1367.322 581 1377.009 581 L 1386.696 581 1384.389 565.750 C 1383.120 557.362, 1382.064 549.487, 1382.041 548.250 C 1382 546.001, 1382.005 546, 1401.250 545.783 L 1420.500 545.565 1401.012 545.033 C 1383.317 544.549, 1381.493 544.335, 1381.181 542.708 C 1380.859 541.028, 1382.041 540.935, 1400.197 541.208 L 1419.556 541.500 1417.174 526.500 C 1415.864 518.250, 1414.727 511.448, 1414.646 511.384 C 1414.209 511.038, 1281.109 510.224, 1280.768 510.566 M 511 570.918 C 511 571.423, 510.769 572.436, 510.486 573.168 C 510.075 574.235, 511.964 574.437, 519.986 574.184 C 529.110 573.895, 530 573.695, 530 571.934 C 530 570.158, 529.225 570, 520.500 570 C 515.275 570, 511 570.413, 511 570.918 M 709.667 573.667 C 709.300 574.033, 708.999 575.046, 708.998 575.917 C 708.996 577.277, 710.406 577.455, 718.998 577.184 C 728.110 576.895, 729 576.695, 729 574.934 C 729 573.160, 728.226 573, 719.667 573 C 714.533 573, 710.033 573.300, 709.667 573.667 M 1154 577.500 C 1154 578.727, 1152.288 579, 1144.594 579 C 1135.680 579, 1135.215 579.105, 1135.710 581 C 1136.185 582.817, 1137.074 583, 1145.418 583 L 1154.604 583 1154.703 579.500 C 1154.757 577.575, 1154.622 576, 1154.401 576 C 1154.180 576, 1154 576.675, 1154 577.500 M 1195 581 C 1195 582.932, 1195.667 583, 1214.500 583 C 1233.333 583, 1234 582.932, 1234 581 C 1234 579.068, 1233.333 579, 1214.500 579 C 1195.667 579, 1195 579.068, 1195 581 M 827.336 589 C 827.497 591.456, 827.678 591.509, 837.658 592 C 843.245 592.275, 847.605 592.163, 847.349 591.750 C 847.092 591.337, 842.665 591, 837.511 591 C 828.602 591, 828.115 590.889, 827.656 588.750 C 827.230 586.767, 827.192 586.797, 827.336 589 M 903.378 615 C 903.378 621.325, 903.541 623.913, 903.739 620.750 C 903.937 617.587, 903.937 612.413, 903.739 609.250 C 903.541 606.087, 903.378 608.675, 903.378 615 M 963.455 652.500 C 963.455 673.950, 963.587 682.583, 963.749 671.684 C 963.911 660.785, 963.910 643.235, 963.748 632.684 C 963.587 622.133, 963.454 631.050, 963.455 652.500 M 1176.750 615.749 C 1187.888 615.910, 1206.112 615.910, 1217.250 615.749 C 1228.388 615.588, 1219.275 615.456, 1197 615.456 C 1174.725 615.456, 1165.612 615.588, 1176.750 615.749 M 902.378 673 C 902.378 679.325, 902.541 681.913, 902.739 678.750 C 902.937 675.587, 902.937 670.413, 902.739 667.250 C 902.541 664.087, 902.378 666.675, 902.378 673 M 984.385 679 C 984.385 685.875, 984.545 688.688, 984.740 685.250 C 984.936 681.813, 984.936 676.188, 984.740 672.750 C 984.545 669.313, 984.385 672.125, 984.385 679 M 529.750 683.750 C 549.688 683.901, 582.313 683.901, 602.250 683.750 C 622.188 683.598, 605.875 683.474, 566 683.474 C 526.125 683.474, 509.813 683.598, 529.750 683.750 M 730.500 686 L 699.500 686.544 730.750 686.772 C 751.069 686.920, 762 686.650, 762 686 C 762 685.450, 761.888 685.103, 761.750 685.228 C 761.612 685.354, 747.550 685.701, 730.500 686 M 782.864 686.265 C 783.285 686.686, 797.326 686.910, 814.065 686.764 L 844.500 686.498 813.299 685.999 C 796.138 685.725, 782.443 685.844, 782.864 686.265 M 907.287 690.740 C 910.469 690.939, 915.419 690.937, 918.287 690.736 C 921.154 690.535, 918.550 690.372, 912.500 690.374 C 906.450 690.376, 904.104 690.541, 907.287 690.740 M 1342.408 694.225 C 1342.609 695.218, 1349.448 695.558, 1373.333 695.764 C 1402.094 696.012, 1403.995 695.919, 1403.921 694.264 C 1403.874 693.218, 1403.637 693.009, 1403.338 693.750 C 1402.686 695.366, 1343.457 695.585, 1342.658 693.975 C 1342.379 693.411, 1342.266 693.524, 1342.408 694.225" stroke="none" fill="#bbcad4" fill-rule="evenodd"/><path d="M 420 301.171 C 420 301.400, 417.357 314.618, 414.126 330.544 C 410.895 346.470, 407.950 361.188, 407.580 363.250 L 406.909 367 471.455 367 C 535.333 367, 536 366.979, 536 365 C 536 363.036, 535.333 363, 499 363 C 478.650 363, 462 362.804, 462 362.565 C 462 362.326, 462.429 361.002, 462.953 359.622 C 463.897 357.141, 463.827 357.101, 456.453 355.862 C 452.354 355.174, 449 354.329, 449 353.985 C 449 353.642, 452.529 352.787, 456.842 352.087 L 464.685 350.813 466.423 340.883 L 468.161 330.952 504.556 331.226 L 540.952 331.500 541.443 329 C 541.713 327.625, 542.640 322, 543.503 316.500 C 544.366 311, 545.289 305.488, 545.555 304.250 C 546.035 302.014, 545.961 302, 533.990 302 L 521.943 302 519.348 307.983 C 516.440 314.688, 515.007 314.920, 514.985 308.691 C 514.957 301.097, 518.341 301.623, 466.560 301.166 C 440.952 300.940, 420 300.943, 420 301.171 M 579.658 329.250 C 577.600 344.238, 575.648 358.863, 575.319 361.750 L 574.721 367 601.799 367 L 628.877 367 629.492 362.250 C 629.830 359.637, 630.340 355.853, 630.626 353.840 C 631.196 349.825, 631.045 349.711, 623.500 348.425 C 616.115 347.167, 616.329 346.254, 624.309 344.966 C 628.539 344.284, 632 343.424, 632 343.055 C 632 341.923, 635.955 309.736, 636.584 305.750 L 637.176 302 610.288 302 L 583.399 302 579.658 329.250 M 720.950 303.088 C 720.922 303.865, 719.662 318.788, 718.149 336.250 L 715.399 368 779.700 368 C 843.333 368, 844 367.979, 844 366 C 844 364.036, 843.333 364, 806.887 364 L 769.773 364 770.205 361.058 C 770.633 358.139, 770.583 358.107, 763.773 356.890 C 759.999 356.216, 756.730 355.373, 756.511 355.017 C 756.291 354.662, 759.423 353.815, 763.470 353.135 L 770.829 351.898 771.483 343.199 C 771.843 338.415, 772.345 333.866, 772.598 333.092 C 772.987 331.902, 778.590 331.776, 808.886 332.278 L 844.713 332.872 845.351 324.686 C 845.701 320.184, 845.991 313.448, 845.994 309.718 L 846 302.937 834.333 303.218 L 822.667 303.500 820.468 310 L 818.270 316.500 817.235 312.500 C 816.666 310.300, 815.922 307.262, 815.581 305.750 L 814.962 303 801.731 302.998 C 794.454 302.998, 773.313 302.700, 754.750 302.337 C 726.054 301.775, 720.992 301.888, 720.950 303.088 M 894.994 327.242 C 894.991 340.584, 894.699 355.212, 894.346 359.750 L 893.704 368 921.352 368 L 949 368 949 359.571 L 949 351.142 943.250 350.024 C 933.171 348.066, 932.883 347.474, 941.307 346.033 L 949 344.717 949 338.859 L 949 333 985.027 333 L 1021.053 333 1020.777 318.250 L 1020.500 303.500 957.750 303.242 L 895 302.985 894.994 327.242 M 1052.006 310.250 C 1052.009 313.688, 1052.301 320.212, 1052.654 324.750 L 1053.296 333 1071.032 333 L 1088.767 333 1089.352 339.250 C 1089.674 342.688, 1090.231 350.788, 1090.589 357.250 L 1091.240 369 1118.263 369 L 1145.287 369 1144.632 359.750 C 1144.272 354.663, 1143.695 346.788, 1143.351 342.250 L 1142.725 334 1160.862 334 L 1179 334 1179 331.567 C 1179 328.931, 1178.777 328.821, 1169.500 326.886 L 1163.500 325.634 1168.500 324.413 C 1171.250 323.742, 1174.575 323.149, 1175.889 323.096 C 1178.177 323.004, 1178.252 322.777, 1177.648 317.750 C 1177.301 314.863, 1177.013 310.587, 1177.009 308.250 L 1177 304 1114.500 304 L 1052 304 1052.006 310.250 M 1226.032 306.091 C 1226.089 310.329, 1232.575 367.910, 1233.047 368.355 C 1233.296 368.591, 1257.861 369.114, 1287.635 369.517 L 1341.770 370.249 1341.269 367.624 L 1340.767 365 1349.945 365 L 1359.123 365 1358.432 360.250 C 1354.662 334.330, 1350.207 305.873, 1349.864 305.530 C 1349.629 305.296, 1321.664 304.784, 1287.719 304.393 L 1226 303.682 1226.032 306.091 M 1400.241 306.250 C 1400.491 306.938, 1403.117 321.563, 1406.075 338.750 L 1411.454 370 1474.739 370 L 1538.024 370 1537.360 365.750 C 1536.995 363.413, 1536.283 361.229, 1535.778 360.898 C 1535.273 360.566, 1531.629 359.718, 1527.680 359.012 C 1519.785 357.601, 1520.370 356.683, 1529.978 355.409 C 1534.429 354.818, 1534.918 354.514, 1534.459 352.623 C 1534.176 351.455, 1531.781 340.375, 1529.138 328 L 1524.332 305.500 1497.792 305.234 L 1471.252 304.968 1475.626 326.161 C 1478.032 337.817, 1480 348.191, 1480 349.214 C 1480 350.915, 1479.207 351.050, 1470.806 350.788 L 1461.612 350.500 1457.357 328 C 1455.017 315.625, 1453.079 305.387, 1453.051 305.250 C 1453.023 305.113, 1448.059 305, 1442.019 305 C 1429.640 305, 1430.362 304.471, 1429.728 314 L 1429.428 318.500 1426.204 311.750 L 1422.980 305 1411.383 305 C 1402.529 305, 1399.894 305.296, 1400.241 306.250 M 1283.008 336.750 C 1283.012 338.262, 1283.687 344.883, 1284.508 351.462 C 1285.329 358.041, 1286 364.004, 1286 364.712 C 1286 365.672, 1288.417 366, 1295.500 366 C 1304.031 366, 1305 365.814, 1305 364.174 C 1305 362.314, 1302.488 343.153, 1301.470 337.250 L 1300.909 334 1291.955 334 L 1283 334 1283.008 336.750 M 1344.188 383.750 C 1344.471 385.230, 1345.870 385.545, 1353.261 385.789 C 1361.483 386.061, 1362 385.957, 1362 384.039 C 1362 382.137, 1361.391 382, 1352.927 382 C 1344.825 382, 1343.889 382.187, 1344.188 383.750 M 451 428.883 L 451 431 488.500 431 C 521.167 431, 526 430.807, 526 429.500 C 526 428.195, 521.411 427.998, 490.750 427.986 C 471.363 427.979, 454.488 427.701, 453.250 427.370 C 451.435 426.883, 451 427.176, 451 428.883 M 622 430 C 622 431.952, 622.667 432, 650 432 C 677.333 432, 678 431.952, 678 430 C 678 428.048, 677.333 428, 650 428 C 622.667 428, 622 428.048, 622 430 M 766 430 C 766 431.964, 766.667 432, 803.500 432 C 834.175 432, 841 431.756, 841 430.660 C 841 429.594, 835.941 429.186, 816.250 428.662 C 802.638 428.300, 785.763 428.003, 778.750 428.002 C 766.666 428, 766 428.104, 766 430 M 949 430.348 C 949 432.204, 963.459 433, 997.156 433 C 1023.333 433, 1024 432.950, 1024 431 C 1024 429.036, 1023.333 429, 986.500 429 C 955.712 429, 949 429.241, 949 430.348" stroke="none" fill="#fae400" fill-rule="evenodd"/><path d="M 521.651 301.750 C 521.394 302.163, 525.080 302.380, 529.842 302.232 C 545.115 301.760, 546.830 301.354, 534.309 301.175 C 527.604 301.079, 521.908 301.337, 521.651 301.750 M 591.250 301.745 C 596.063 301.928, 603.938 301.928, 608.750 301.745 C 613.563 301.561, 609.625 301.411, 600 301.411 C 590.375 301.411, 586.438 301.561, 591.250 301.745 M 794.454 302.739 C 808.791 302.958, 814.654 303.389, 815.281 304.272 C 815.913 305.163, 816.040 305.088, 815.744 304 C 815.398 302.730, 812.199 302.495, 794.917 302.467 L 774.500 302.434 794.454 302.739 M 822.671 302.719 C 822.404 303.149, 827.515 303.361, 834.029 303.192 L 845.872 302.884 846.291 306.451 L 846.710 310.017 846.605 306.259 L 846.500 302.500 834.828 302.219 C 828.409 302.064, 822.938 302.289, 822.671 302.719 M 1051.150 306.250 C 1051.289 309.262, 1051.330 309.299, 1051.715 306.759 L 1052.131 304.018 1102.316 303.750 L 1152.500 303.481 1101.750 303.241 L 1051 303 1051.150 306.250 M 1316.500 304.689 C 1333.674 305.406, 1350.774 305.437, 1350.348 304.750 C 1350.092 304.337, 1340.796 304.089, 1329.691 304.199 C 1318.586 304.308, 1312.650 304.529, 1316.500 304.689 M 1404.750 304.737 C 1407.638 304.939, 1412.362 304.939, 1415.250 304.737 C 1418.138 304.535, 1415.775 304.370, 1410 304.370 C 1404.225 304.370, 1401.862 304.535, 1404.750 304.737 M 1021.175 327.735 L 1021 332.971 990.750 333.251 L 960.500 333.530 990.781 333.765 C 1024.481 334.027, 1022.416 334.487, 1021.738 326.864 C 1021.353 322.538, 1021.348 322.545, 1021.175 327.735 M 1052.405 328 L 1052.500 333.500 1070 333.535 L 1087.500 333.569 1070.301 333.262 L 1053.103 332.954 1052.706 327.727 L 1052.309 322.500 1052.405 328 M 894.392 343 C 894.392 350.425, 894.549 353.462, 894.742 349.750 C 894.934 346.038, 894.934 339.962, 894.742 336.250 C 894.549 332.538, 894.392 335.575, 894.392 343 M 480.191 331.747 C 487.171 331.918, 498.871 331.919, 506.191 331.748 C 513.511 331.577, 507.800 331.436, 493.500 331.436 C 479.200 331.435, 473.211 331.575, 480.191 331.747 M 772.374 333.467 C 772.065 334.274, 772.043 335.511, 772.327 336.217 C 772.610 336.923, 772.878 336.499, 772.921 335.276 C 772.999 333.092, 773.273 333.047, 788.250 332.748 L 803.500 332.444 788.219 332.222 C 775.566 332.038, 772.840 332.252, 772.374 333.467 M 1461.319 348.500 C 1461.506 350.332, 1462.279 350.505, 1470.511 350.556 L 1479.500 350.612 1470.816 350.270 C 1463.667 349.987, 1462.043 349.624, 1461.624 348.213 C 1461.246 346.940, 1461.167 347.014, 1461.319 348.500 M 1286.015 364.250 C 1286.002 365.812, 1287.048 365.978, 1295.750 365.794 L 1305.500 365.589 1296.533 365.252 C 1290.954 365.043, 1287.276 364.459, 1286.798 363.708 C 1286.273 362.881, 1286.026 363.052, 1286.015 364.250 M 1350.250 364.745 C 1341.428 365.060, 1341.005 365.178, 1341.116 367.288 C 1341.205 368.980, 1341.340 369.089, 1341.689 367.750 C 1342.082 366.248, 1343.413 366, 1351.073 366 C 1356.358 366, 1360 365.592, 1360 365 C 1360 364.450, 1359.888 364.093, 1359.750 364.208 C 1359.612 364.322, 1355.338 364.564, 1350.250 364.745 M 843 371.833 L 843 376 779.070 376 L 715.139 376 714.706 373.750 C 714.364 371.976, 714.242 372.135, 714.128 374.500 C 714.049 376.150, 712.416 395.725, 710.500 418 C 708.584 440.275, 707.012 459.063, 707.008 459.750 C 707.002 460.701, 711.020 461, 723.786 461 L 740.573 461 742.979 454.060 C 744.303 450.243, 745.717 447.325, 746.123 447.576 C 746.528 447.827, 747.160 450.430, 747.526 453.362 C 747.892 456.294, 748.486 459.150, 748.846 459.709 C 749.265 460.360, 765.731 460.908, 794.659 461.233 L 839.819 461.741 840.424 450.120 C 840.756 443.729, 841.251 436.137, 841.523 433.250 L 842.017 428 837.759 428.168 L 833.500 428.336 837.250 428.728 C 839.665 428.981, 841 429.633, 841 430.560 C 841 431.788, 835.449 432, 803.356 432 L 765.712 432 766.347 424.250 C 766.696 419.988, 767.278 411.887, 767.641 406.250 L 768.301 396 805.530 396 L 842.759 396 843.485 382.439 C 843.885 374.981, 843.939 368.606, 843.606 368.272 C 843.273 367.939, 843 369.542, 843 371.833 M 628 372.833 L 628 375 600.519 375 L 573.038 375 572.522 377.250 C 572.044 379.338, 561 459.021, 561 460.385 C 561 460.723, 564.271 461, 568.269 461 L 575.538 461 578.472 453.315 C 581.706 444.845, 581.907 444.964, 583.468 456.260 L 584.126 461.020 629.813 460.760 L 675.500 460.500 676.678 448.500 C 677.325 441.900, 678.041 434.700, 678.269 432.500 C 678.496 430.300, 678.498 429.288, 678.272 430.250 C 677.893 431.865, 675.708 432, 649.930 432 C 622.667 432, 622 431.952, 622 430 C 622 428.900, 622.563 427.993, 623.250 427.985 C 624.171 427.973, 624.194 427.775, 623.339 427.230 C 622.475 426.681, 623.055 419.458, 625.598 399.088 C 627.479 384.017, 628.789 371.456, 628.509 371.176 C 628.229 370.896, 628 371.642, 628 372.833 M 469.536 375 L 404.571 375.500 396.355 416 C 391.835 438.275, 388.107 457.288, 388.069 458.250 C 388.006 459.850, 389.441 460, 404.807 460 L 421.615 460 424.964 452.750 L 428.313 445.500 429.088 452.399 C 429.520 456.239, 430.448 459.671, 431.182 460.139 C 431.907 460.602, 452.518 460.873, 476.984 460.741 L 521.468 460.500 523.162 449.500 C 524.094 443.450, 525.118 436.818, 525.438 434.762 L 526.020 431.024 488.204 430.762 L 450.388 430.500 453.170 415 C 454.700 406.475, 456.197 398.488, 456.495 397.250 L 457.038 395 494.393 395 L 531.747 395 533.339 384.798 C 534.214 379.188, 534.833 374.575, 534.715 374.548 C 534.597 374.522, 505.266 374.725, 469.536 375 M 893.596 379.250 C 893.324 381.038, 892.831 400.387, 892.500 422.250 L 891.900 462 941.872 462 L 991.845 462 992.866 458.750 C 993.428 456.962, 994.421 453.475, 995.074 451 L 996.260 446.500 998.410 454 L 1000.561 461.500 1012.931 461.782 L 1025.301 462.064 1024.657 453.782 C 1024.302 449.227, 1024.009 442.688, 1024.006 439.250 L 1024 433 986.500 433 C 949.841 433, 949 432.956, 949 431.027 C 949 429.171, 949.837 429.037, 963.250 428.748 L 977.500 428.441 963.250 428.220 L 949 428 949 402 L 949 376 921.545 376 L 894.091 376 893.596 379.250 M 1412.079 377.168 C 1411.853 381.933, 1412.121 382, 1431.428 382 L 1449.641 382 1454.965 410.750 C 1457.893 426.563, 1461.241 444.675, 1462.405 451 L 1464.522 462.500 1476.761 462.781 L 1489 463.062 1489 460.170 C 1489 458.580, 1489.288 455.177, 1489.640 452.608 L 1490.281 447.937 1493.598 455.218 L 1496.915 462.500 1508.984 462.781 L 1521.054 463.062 1520.508 460.781 C 1519.545 456.753, 1505 383.605, 1505 382.788 C 1505 382.355, 1513.100 382, 1523 382 C 1540.333 382, 1541 381.926, 1541 380 C 1541 378.021, 1540.333 378, 1477.083 378 C 1426.886 378, 1413.058 377.732, 1412.662 376.750 C 1412.348 375.971, 1412.128 376.129, 1412.079 377.168 M 1091.309 384.750 C 1091.636 389.012, 1092.694 408.137, 1093.660 427.250 L 1095.414 462 1107.616 462 L 1119.818 462 1121.069 455 C 1121.757 451.150, 1122.610 448, 1122.963 448 C 1123.317 448, 1124.621 451.150, 1125.861 455 L 1128.115 462 1140.196 462 L 1152.276 462 1151.663 454.750 C 1151.325 450.762, 1150.126 433.100, 1148.998 415.500 C 1147.870 397.900, 1146.713 382.038, 1146.428 380.250 L 1145.909 377 1118.311 377 L 1090.712 377 1091.309 384.750 M 1233.007 377.640 C 1233.011 378.113, 1235.036 397.335, 1237.507 420.356 C 1239.978 443.377, 1242 462.389, 1242 462.606 C 1242 462.823, 1254.665 463, 1270.145 463 L 1298.289 463 1297.703 456.750 C 1297.380 453.313, 1296.590 446.406, 1295.947 441.403 L 1294.777 432.305 1287.139 430.847 L 1279.500 429.388 1286.338 427.773 C 1290.098 426.885, 1293.384 425.950, 1293.638 425.695 C 1293.893 425.440, 1293.404 419.911, 1292.551 413.407 C 1290.185 395.365, 1289.454 397, 1299.889 397 L 1308.777 397 1309.349 400.250 C 1309.663 402.038, 1311.521 415.875, 1313.477 431 C 1315.434 446.125, 1317.261 459.512, 1317.536 460.750 L 1318.038 463 1346.147 463 L 1374.256 463 1373.575 458.750 C 1373.200 456.413, 1371.096 442.350, 1368.899 427.500 C 1362.389 383.507, 1362.219 382.426, 1362.107 384.250 C 1362.014 385.777, 1360.869 386, 1353.117 386 C 1345.074 386, 1344.184 385.811, 1343.710 384 C 1343.216 382.112, 1343.727 381.989, 1352.844 381.794 L 1362.500 381.589 1353.580 381.253 C 1346.592 380.990, 1344.390 380.548, 1343.412 379.211 C 1342.268 377.646, 1337.627 377.474, 1287.582 377.142 C 1257.502 376.943, 1233.003 377.166, 1233.007 377.640 M 487.500 427.696 C 507.232 428.409, 527.003 428.436, 527.001 427.750 C 527.001 427.337, 516.313 427.092, 503.250 427.204 C 490.188 427.315, 483.100 427.537, 487.500 427.696 M 1147.320 507.749 C 1162.072 507.905, 1185.922 507.905, 1200.320 507.749 C 1214.719 507.593, 1202.650 507.465, 1173.500 507.466 C 1144.350 507.466, 1132.569 507.593, 1147.320 507.749 M 1340.250 510.749 C 1353.862 510.906, 1376.138 510.906, 1389.750 510.749 C 1403.362 510.592, 1392.225 510.463, 1365 510.463 C 1337.775 510.463, 1326.638 510.592, 1340.250 510.749 M 963.411 560 C 963.411 569.625, 963.561 573.563, 963.745 568.750 C 963.928 563.938, 963.928 556.063, 963.745 551.250 C 963.561 546.438, 963.411 550.375, 963.411 560 M 1293.803 545.746 C 1299.470 545.925, 1308.470 545.924, 1313.803 545.745 C 1319.136 545.565, 1314.500 545.419, 1303.500 545.420 C 1292.500 545.421, 1288.136 545.568, 1293.803 545.746 M 1165.750 578.747 C 1171.938 578.922, 1182.063 578.922, 1188.250 578.747 C 1194.438 578.571, 1189.375 578.428, 1177 578.428 C 1164.625 578.428, 1159.563 578.571, 1165.750 578.747 M 569.299 644.745 C 574.139 644.929, 581.789 644.928, 586.299 644.743 C 590.810 644.558, 586.850 644.408, 577.500 644.409 C 568.150 644.410, 564.460 644.562, 569.299 644.745 M 1112.250 692.747 C 1118.713 692.921, 1129.287 692.921, 1135.750 692.747 C 1142.213 692.573, 1136.925 692.430, 1124 692.430 C 1111.075 692.430, 1105.787 692.573, 1112.250 692.747" stroke="none" fill="#9c6f00" fill-rule="evenodd"/><path d="M 408.974 288.143 C 408.960 288.339, 400.688 328.085, 390.594 376.468 L 372.239 464.435 395.279 491.218 L 418.319 518 461.576 518 C 491.722 518, 504.943 518.328, 505.194 519.082 C 505.393 519.678, 506.686 512.590, 508.068 503.332 L 510.581 486.500 588.120 486.244 L 665.659 485.988 672.616 502.244 L 679.573 518.500 690.500 518.786 C 696.509 518.943, 701.706 519.524, 702.047 520.075 C 702.388 520.627, 703.251 513.861, 703.966 505.039 L 705.265 489 781.632 489 L 858 489 857.980 479.750 C 857.969 474.663, 857.538 467.582, 857.023 464.016 C 856.287 458.923, 856.369 457.373, 857.406 456.792 C 859.043 455.877, 860.504 411.663, 859.191 402.791 C 858.577 398.644, 858.670 396.957, 859.529 396.627 C 860.358 396.309, 860.927 389.771, 861.425 374.836 C 862.086 355.031, 861.914 351.384, 859.015 324 C 857.298 307.775, 855.698 293.547, 855.460 292.382 L 855.028 290.264 783.264 289.781 C 743.794 289.516, 711.382 289.388, 711.237 289.496 C 711.054 289.633, 699.534 411.582, 696.941 440.832 C 696.908 441.199, 694.766 435.650, 692.181 428.500 L 687.481 415.500 674.741 415.220 L 662 414.940 662.005 411.720 C 662.007 409.949, 663.356 396.018, 665.002 380.763 L 667.995 353.027 656.658 321.263 L 645.320 289.500 609.271 289.238 L 573.223 288.975 572.699 291.238 C 572.410 292.482, 571.389 299.256, 570.428 306.291 C 569.468 313.326, 568.332 318.726, 567.904 318.291 C 567.476 317.856, 564.221 311.287, 560.672 303.692 C 557.122 296.098, 554.056 289.739, 553.859 289.562 C 553.361 289.114, 409.006 287.700, 408.974 288.143 M 885.689 310.108 C 885.340 321.324, 884.290 360.875, 883.356 398 L 881.657 465.500 883.850 489 C 886.874 521.388, 886.313 519, 890.899 519 L 894.707 519 895.353 511.349 C 895.709 507.141, 896 501.291, 896 498.349 L 896 493 963.814 493 L 1031.629 493 1033.393 479.344 C 1034.878 467.845, 1035.043 461.764, 1034.436 440.856 L 1033.716 416.024 996.108 415.762 L 958.500 415.500 958.212 406.250 L 957.925 397 991.462 397 C 1009.908 397, 1025 396.663, 1025 396.250 C 1024.999 395.837, 1026.400 382.675, 1028.112 367 C 1031.007 340.500, 1031.183 336.858, 1030.627 315.098 C 1030.298 302.226, 1029.807 291.473, 1029.536 291.202 C 1029.265 290.931, 996.931 290.486, 957.683 290.213 L 886.323 289.717 885.689 310.108 M 1042.559 294.243 C 1042.265 296.035, 1040.669 309.526, 1039.012 324.224 C 1035.946 351.426, 1035.489 363.179, 1036.654 384.843 L 1037.307 397 1053.685 397 C 1065.895 397, 1070.170 397.318, 1070.485 398.250 C 1070.717 398.938, 1072.055 426.354, 1073.457 459.176 C 1074.859 491.998, 1076.312 519.651, 1076.687 520.626 C 1077.333 522.311, 1078.131 519.303, 1081.956 500.750 L 1083.142 495 1118.881 495 L 1154.620 495 1159.210 480.250 L 1163.801 465.500 1161.431 435 C 1160.127 418.225, 1159.047 403.038, 1159.030 401.250 L 1159 398 1165.344 398 L 1171.688 398 1180.844 368.238 C 1191.156 334.718, 1190.795 337.608, 1188.177 309.500 L 1186.500 291.500 1114.797 291.243 L 1043.093 290.987 1042.559 294.243 M 1217.624 291.799 C 1217.381 292.193, 1212.659 306.479, 1207.131 323.546 L 1197.081 354.577 1203.030 420.539 C 1206.302 456.817, 1209.236 488.413, 1209.551 490.750 L 1210.123 495 1223.482 495 L 1236.841 495 1237.377 497.750 C 1237.672 499.262, 1238.193 504.100, 1238.536 508.500 C 1239.500 520.889, 1238.586 520, 1250.359 520 L 1260.584 520 1266.365 509 L 1272.147 498 1319.824 497.974 L 1367.500 497.948 1377.752 482.476 L 1388.004 467.003 1386.490 457.252 C 1385.658 451.888, 1384.744 446.473, 1384.461 445.217 L 1383.945 442.934 1395.216 443.217 L 1406.487 443.500 1410.879 470.750 L 1415.271 498 1420.533 498 L 1425.795 498 1426.883 504.250 C 1427.481 507.688, 1428.263 512.638, 1428.621 515.250 L 1429.272 520 1459.386 520 L 1489.500 520 1510 496.862 C 1521.275 484.136, 1531.767 472.216, 1533.314 470.372 L 1536.129 467.020 1531.560 445.260 C 1529.047 433.292, 1526.999 422.825, 1527.009 422 C 1527.020 421.175, 1533.530 412.547, 1541.476 402.826 L 1555.924 385.152 1545.723 339.215 L 1535.523 293.278 1524.512 292.644 C 1518.455 292.295, 1486.273 292.007, 1452.997 292.005 L 1392.493 292 1380.581 314.535 C 1374.030 326.929, 1368.369 336.716, 1368.001 336.285 C 1367.633 335.853, 1365.870 325.825, 1364.082 314 C 1362.295 302.175, 1360.758 292.449, 1360.666 292.388 C 1359.858 291.841, 1217.959 291.257, 1217.624 291.799 M 403.522 380.078 C 390.166 446.549, 387.861 459.300, 389.066 460.062 C 389.855 460.561, 397.388 460.976, 405.807 460.985 L 421.114 461 424.799 453.250 L 428.485 445.500 428.752 451 C 428.898 454.025, 429.249 457.517, 429.531 458.760 L 430.043 461.020 475.736 460.760 L 521.429 460.500 524.168 444 C 525.674 434.925, 526.927 427.387, 526.953 427.250 C 526.979 427.113, 509.891 427, 488.981 427 L 450.962 427 451.460 424.750 C 451.735 423.512, 452.897 417.325, 454.044 411 C 455.191 404.675, 456.374 398.488, 456.673 397.250 L 457.217 395 494.608 395 C 515.174 395, 532 394.768, 532 394.483 C 532 393.612, 535.982 368.677, 536.589 365.750 L 537.159 363 517.329 362.997 C 506.423 362.995, 489.747 362.700, 480.270 362.340 L 463.041 361.687 463.611 359.415 C 464.102 357.459, 463.648 356.996, 460.340 356.078 C 458.228 355.491, 455.712 355.009, 454.750 355.006 C 453.788 355.003, 453 354.582, 453 354.072 C 453 353.562, 455.481 352.834, 458.513 352.455 C 461.545 352.076, 464.314 351.302, 464.664 350.734 C 465.015 350.166, 466.027 345.831, 466.913 341.101 L 468.523 332.500 505.134 332.238 L 541.744 331.976 543.882 318.238 C 545.058 310.682, 546.016 303.712, 546.010 302.750 C 546.001 301.181, 544.754 301, 533.925 301 L 521.850 301 519.197 307.150 C 516.850 312.588, 516.465 313.022, 515.871 310.900 C 515.502 309.580, 515.155 306.813, 515.100 304.750 L 515 301 467.206 301 L 419.412 301 403.522 380.078 M 582.541 304.250 C 582.239 306.038, 579.755 323.700, 577.022 343.500 C 574.288 363.300, 569.565 397.314, 566.526 419.088 C 563.487 440.861, 561 459.198, 561 459.838 C 561 460.615, 563.431 461, 568.346 461 L 575.692 461 578.701 453.293 L 581.711 445.587 582.393 450.543 C 582.769 453.270, 583.319 456.738, 583.617 458.250 L 584.159 461 629.909 461 L 675.660 461 676.855 447.500 C 677.512 440.075, 678.307 432.713, 678.622 431.142 C 679.100 428.750, 678.811 428.181, 676.847 427.656 C 675.556 427.310, 662.679 427.021, 648.231 427.014 L 621.962 427 622.461 424.750 C 622.966 422.470, 630.822 357.999, 631.261 352.527 C 631.493 349.641, 631.309 349.511, 625 348.085 L 618.500 346.616 624.824 345.435 C 628.302 344.785, 631.508 343.858, 631.950 343.376 C 632.749 342.505, 637.027 308.997, 637.009 303.750 L 637 301 610.045 301 L 583.091 301 582.541 304.250 M 713.690 380.240 C 709.977 423.283, 706.953 459.063, 706.969 459.750 C 706.993 460.700, 711.071 461, 723.942 461 L 740.885 461 743.137 454.006 C 745.554 446.501, 746.468 446.500, 747.500 454 C 747.848 456.528, 748.479 459.158, 748.904 459.844 C 749.493 460.798, 760.333 461.238, 794.735 461.706 L 839.794 462.318 840.367 453.909 C 840.683 449.284, 841.129 441.563, 841.360 436.750 L 841.779 428 803.778 428 L 765.777 428 766.342 424.750 C 766.652 422.962, 767.213 415.762, 767.588 408.750 L 768.271 396 805.486 396 L 842.701 396 843.350 386.846 C 843.708 381.812, 844 374.612, 844 370.846 L 844 364 821.750 363.996 C 809.513 363.994, 793.049 363.698, 785.164 363.337 C 770.909 362.685, 770.830 362.668, 771.266 360.391 C 771.759 357.808, 771.144 357.444, 764.628 356.467 C 762.083 356.085, 760 355.425, 760 355 C 760 354.575, 762.083 353.915, 764.628 353.533 C 771.797 352.458, 772 352.279, 772 347.033 C 772 344.418, 772.286 340.191, 772.636 337.640 L 773.272 333 809.636 333 L 846 333 846 325.151 C 846 320.834, 846.292 313.844, 846.649 309.619 L 847.299 301.936 834.902 302.218 L 822.505 302.500 820.356 308.500 C 818.275 314.309, 818.184 314.404, 817.500 311.500 C 817.111 309.850, 816.473 307.150, 816.083 305.500 L 815.373 302.500 767.907 302.240 L 720.441 301.981 713.690 380.240 M 895.408 303.148 C 895.017 303.782, 892.021 436.003, 892.007 453.259 L 892 462.018 942.199 461.759 L 992.399 461.500 993.949 455.320 C 994.802 451.921, 995.778 448.868, 996.118 448.535 C 996.458 448.203, 997.557 451.096, 998.561 454.965 L 1000.386 462 1012.846 462 L 1025.307 462 1024.654 449.843 C 1024.294 443.157, 1024 435.507, 1024 432.843 L 1024 428 986.478 428 L 948.956 428 949.024 389.250 L 949.092 350.500 943.511 349.382 C 940.442 348.767, 937.701 348.034, 937.419 347.753 C 937.138 347.471, 939.011 346.926, 941.582 346.540 C 948.907 345.442, 949 345.352, 949 339.393 L 949 334 985.613 334 L 1022.226 334 1021.502 318.750 C 1021.103 310.363, 1020.703 303.413, 1020.612 303.306 C 1020.140 302.755, 895.748 302.598, 895.408 303.148 M 1051.344 309.707 C 1051.697 313.443, 1051.989 320.438, 1051.993 325.250 L 1052 334 1070.500 334 L 1089 334 1089.014 338.750 C 1089.021 341.363, 1090.367 368.250, 1092.005 398.500 C 1093.642 428.750, 1094.986 455.413, 1094.991 457.750 L 1095 462 1107.391 462 L 1119.783 462 1121.075 455.500 C 1121.786 451.925, 1122.648 449, 1122.991 449 C 1123.334 449, 1124.514 451.813, 1125.613 455.250 L 1127.610 461.500 1139.805 461.781 L 1152 462.062 1151.933 458.281 C 1151.896 456.201, 1149.981 427.500, 1147.678 394.500 L 1143.490 334.500 1161.495 334 L 1179.500 333.500 1179.530 330.871 C 1179.558 328.397, 1179.145 328.167, 1172.530 326.970 C 1168.664 326.271, 1165.950 325.570, 1166.500 325.413 C 1167.050 325.255, 1169.992 324.636, 1173.039 324.036 L 1178.578 322.946 1177.775 313.792 C 1177.333 308.757, 1176.716 304.382, 1176.403 304.069 C 1176.090 303.756, 1147.680 303.368, 1113.269 303.207 L 1050.703 302.914 1051.344 309.707 M 1225.514 307.750 C 1225.809 309.813, 1228.072 331.075, 1230.543 355 C 1236.176 409.556, 1240.808 453.215, 1241.552 458.750 L 1242.123 463 1269.895 463 C 1285.169 463, 1297.886 462.781, 1298.153 462.513 C 1298.421 462.246, 1297.839 455.833, 1296.860 448.263 C 1295.880 440.694, 1295.061 433.978, 1295.040 433.341 C 1295.018 432.700, 1291.852 431.619, 1287.961 430.924 C 1280.332 429.560, 1280.424 428.542, 1288.273 427.462 C 1290.951 427.094, 1293.359 426.227, 1293.625 425.535 C 1293.890 424.844, 1293.408 418.946, 1292.554 412.430 C 1290.312 395.340, 1289.522 397, 1299.897 397 L 1308.793 397 1309.943 405.250 C 1310.575 409.788, 1312.553 424.525, 1314.339 438 L 1317.585 462.500 1345.926 462.766 L 1374.268 463.032 1373.739 459.266 C 1371.583 443.885, 1362.848 385.053, 1362.454 383.250 C 1361.989 381.122, 1361.480 381, 1353.048 381 C 1342.986 381, 1343.591 381.528, 1342.444 371.750 L 1341.770 366 1350.993 366 C 1360.050 366, 1360.207 365.959, 1359.682 363.750 C 1359.388 362.512, 1357.230 348.563, 1354.887 332.750 L 1350.626 304 1287.801 304 L 1224.976 304 1225.514 307.750 M 1400 305.622 C 1400 307.267, 1411.532 375.613, 1412.507 379.750 C 1413.034 381.982, 1413.187 382, 1431.269 382 L 1449.500 382.001 1456.978 422.500 L 1464.455 463 1476.598 463 L 1488.742 463 1489.500 455.750 L 1490.258 448.500 1493.599 455.750 L 1496.939 463 1508.970 463 C 1515.586 463, 1520.999 462.887, 1520.998 462.750 C 1520.997 462.613, 1517.397 444.575, 1512.998 422.666 C 1508.599 400.757, 1505 382.645, 1505 382.416 C 1505 382.187, 1513.100 382, 1523 382 C 1532.900 382, 1541.004 381.663, 1541.010 381.250 C 1541.015 380.837, 1540.046 375.916, 1538.856 370.313 L 1536.693 360.127 1529.597 358.856 L 1522.500 357.586 1528.284 356.425 C 1531.466 355.787, 1534.350 354.983, 1534.693 354.640 C 1535.037 354.296, 1532.996 343.282, 1530.159 330.163 C 1527.322 317.045, 1525 306.016, 1525 305.656 C 1525 305.295, 1512.850 305, 1498 305 C 1483.150 305, 1471.004 305.113, 1471.010 305.250 C 1471.015 305.387, 1472.969 315.512, 1475.353 327.750 L 1479.687 350 1470.952 350 C 1462.712 350, 1462.188 349.873, 1461.705 347.750 C 1461.423 346.512, 1459.497 336.452, 1457.424 325.393 L 1453.656 305.286 1442.706 304.659 C 1436.683 304.315, 1431.361 304.277, 1430.878 304.575 C 1430.395 304.874, 1429.968 306.779, 1429.930 308.809 C 1429.787 316.296, 1428.612 316.660, 1425.779 310.094 L 1423.150 304 1411.575 304 C 1401.565 304, 1400 304.219, 1400 305.622 M 1283.383 337.750 C 1283.682 339.262, 1284.405 345, 1284.990 350.500 C 1286.683 366.406, 1285.634 365, 1295.812 365 L 1304.586 365 1302.612 350 L 1300.638 335 1291.740 335 L 1282.841 335 1283.383 337.750 M 894.370 548 C 894.370 553.775, 894.535 556.138, 894.737 553.250 C 894.939 550.362, 894.939 545.638, 894.737 542.750 C 894.535 539.862, 894.370 542.225, 894.370 548 M 893.374 596.500 C 893.376 602.550, 893.541 604.896, 893.740 601.713 C 893.939 598.531, 893.937 593.581, 893.736 590.713 C 893.535 587.846, 893.372 590.450, 893.374 596.500 M 629.315 587.749 C 639.664 587.912, 656.314 587.911, 666.315 587.748 C 676.317 587.585, 667.850 587.452, 647.500 587.453 C 627.150 587.453, 618.967 587.586, 629.315 587.749 M 892.370 645 C 892.370 650.775, 892.535 653.138, 892.737 650.250 C 892.939 647.362, 892.939 642.638, 892.737 639.750 C 892.535 636.862, 892.370 639.225, 892.370 645" stroke="none" fill="#0f1118" fill-rule="evenodd"/><path d="M 524.287 331.740 C 527.469 331.939, 532.419 331.937, 535.287 331.736 C 538.154 331.535, 535.550 331.372, 529.500 331.374 C 523.450 331.376, 521.104 331.541, 524.287 331.740 M 808.250 332.739 C 811.413 332.937, 816.587 332.937, 819.750 332.739 C 822.913 332.541, 820.325 332.378, 814 332.378 C 807.675 332.378, 805.087 332.541, 808.250 332.739 M 573.823 370.750 L 573.486 375 600.618 375 L 627.750 375 628.375 371.875 C 628.719 370.156, 629 368.370, 629 367.906 C 629 367.442, 616.661 366.935, 601.580 366.781 L 574.160 366.500 573.823 370.750 M 406.550 368.250 C 406.337 368.938, 405.962 370.741, 405.718 372.257 L 405.275 375.014 469.887 374.757 L 534.500 374.500 534.810 370.750 L 535.121 367 471.029 367 C 420.629 367, 406.854 367.267, 406.550 368.250 M 715 372 L 715 376 779 376 L 843 376 843 372 L 843 368 779 368 L 715 368 715 372 M 894 372 L 894 376 921.500 376 L 949 376 949 372 L 949 368 921.500 368 L 894 368 894 372 M 1091 373 L 1091 377 1118.625 377 L 1146.250 377 1145.625 373.875 C 1145.281 372.156, 1145 370.356, 1145 369.875 C 1145 369.394, 1132.850 369, 1118 369 L 1091 369 1091 373 M 1233 372.878 L 1233 377 1275.843 377 C 1299.407 377, 1324.139 377.293, 1330.805 377.652 L 1342.923 378.303 1342.320 374.402 C 1341.988 372.256, 1341.668 370.438, 1341.608 370.361 C 1341.549 370.285, 1317.088 369.893, 1287.250 369.490 L 1233 368.757 1233 372.878 M 1411.448 371.250 C 1411.660 371.938, 1412.104 373.738, 1412.436 375.250 L 1413.038 378 1476.586 378 L 1540.135 378 1539.488 375.750 C 1539.132 374.512, 1538.622 372.712, 1538.353 371.750 C 1537.895 370.107, 1533.994 370, 1474.464 370 C 1424.204 370, 1411.143 370.259, 1411.448 371.250 M 460.250 427.742 C 463.962 427.934, 470.038 427.934, 473.750 427.742 C 477.462 427.549, 474.425 427.392, 467 427.392 C 459.575 427.392, 456.538 427.549, 460.250 427.742 M 814.250 428.742 C 817.962 428.934, 824.038 428.934, 827.750 428.742 C 831.462 428.549, 828.425 428.392, 821 428.392 C 813.575 428.392, 810.538 428.549, 814.250 428.742" stroke="none" fill="#d7cb7a" fill-rule="evenodd"/></svg>