<?xml version="1.0" encoding="UTF-8"?>
<svg xmlns="http://www.w3.org/2000/svg" xmlns:xlink="http://www.w3.org/1999/xlink" width="1024px" height="576px" viewBox="0 0 1024 576" version="1.1">
<g id="surface1">
<path style=" stroke:none;fill-rule:evenodd;fill:rgb(6.27451%,8.235294%,18.431373%);fill-opacity:1;" d="M 331.601562 160.925781 C 333.140625 161.035156 335.660156 161.035156 337.199219 160.925781 C 338.742188 160.820312 337.480469 160.730469 334.398438 160.730469 C 331.320312 160.730469 330.058594 160.820312 331.601562 160.925781 M 250.019531 193.460938 C 251.867188 193.566406 254.746094 193.566406 256.421875 193.460938 C 258.097656 193.355469 256.585938 193.269531 253.066406 193.269531 C 249.546875 193.269531 248.175781 193.359375 250.019531 193.460938 M 339.601562 228.132812 C 343.488281 228.222656 349.847656 228.222656 353.734375 228.132812 C 357.621094 228.042969 354.441406 227.964844 346.667969 227.964844 C 338.894531 227.964844 335.714844 228.042969 339.601562 228.132812 M 527.363281 228.664062 C 530.972656 228.757812 536.734375 228.757812 540.164062 228.664062 C 543.59375 228.570312 540.640625 228.496094 533.601562 228.496094 C 526.558594 228.496094 523.753906 228.574219 527.363281 228.664062 M 212.160156 245.730469 C 214.59375 245.828125 218.433594 245.828125 220.691406 245.730469 C 222.953125 245.628906 220.960938 245.546875 216.265625 245.550781 C 211.574219 245.550781 209.726562 245.632812 212.160156 245.730469 M 419.601562 246.265625 C 422.898438 246.359375 428.300781 246.359375 431.601562 246.265625 C 434.898438 246.171875 432.199219 246.09375 425.601562 246.09375 C 419 246.09375 416.300781 246.171875 419.601562 246.265625 M 272.304688 259.867188 C 271.855469 261.425781 255.40625 367.539062 255.5625 367.894531 C 255.65625 368.109375 260.460938 372.78125 266.238281 378.277344 L 276.742188 388.265625 L 317.304688 388.265625 C 355.574219 388.265625 357.867188 388.214844 357.878906 387.332031 C 357.882812 386.820312 358.464844 380.398438 359.164062 373.066406 L 360.441406 359.734375 L 353.761719 348.398438 L 347.082031 337.066406 L 335.140625 337.066406 C 325.941406 337.066406 323.199219 336.914062 323.203125 336.398438 C 323.207031 335.648438 325.132812 318.824219 325.617188 315.332031 L 325.933594 313.066406 L 345.367188 313.066406 C 360.558594 313.066406 364.800781 312.921875 364.796875 312.398438 C 364.792969 312.035156 365.300781 306.191406 365.921875 299.421875 L 367.046875 287.109375 L 361.023438 273.152344 L 355 259.199219 L 313.75 259.199219 C 281.207031 259.199219 272.460938 259.339844 272.304688 259.867188 M 375.972656 262.535156 C 375.957031 263.488281 373.828125 287.90625 371.246094 316.800781 L 366.546875 369.332031 L 378.398438 389.824219 L 418.800781 389.84375 C 441.019531 389.855469 459.203125 389.808594 459.210938 389.734375 C 459.21875 389.660156 459.914062 366.917969 460.765625 339.199219 L 462.308594 288.792969 L 460.5 275.464844 C 459.507812 268.132812 458.691406 261.832031 458.679688 261.464844 C 458.667969 260.9375 450.035156 260.800781 417.332031 260.800781 L 376 260.800781 L 375.972656 262.535156 M 477.667969 271.066406 C 477.488281 275.539062 476.9375 300 476.449219 325.425781 L 475.554688 371.652344 L 476.796875 381.824219 L 478.035156 392 L 558.675781 392 L 561.230469 381.734375 L 563.789062 371.464844 L 562.1875 324.800781 C 561.304688 299.132812 560.425781 274.714844 560.234375 270.535156 L 559.890625 262.933594 L 477.996094 262.933594 L 477.667969 271.066406 M 577.042969 267.066406 C 576.695312 268.753906 575.382812 274.898438 574.128906 280.722656 L 571.84375 291.308594 L 573.90625 340.722656 C 575.042969 367.898438 575.976562 390.675781 575.984375 391.339844 L 576 392.546875 L 616.265625 392.265625 L 621.429688 382.398438 L 626.589844 372.535156 L 626.113281 366.132812 C 625.851562 362.613281 625.503906 358.472656 625.347656 356.933594 L 625.058594 354.132812 L 653.066406 354.109375 L 659.824219 342.734375 L 666.578125 331.359375 L 665.15625 317.101562 C 664.375 309.257812 663.539062 303.035156 663.304688 303.273438 C 663.070312 303.507812 663.035156 303.289062 663.230469 302.785156 C 663.535156 301.984375 663.199219 301.867188 660.585938 301.867188 L 657.589844 301.867188 L 660.078125 296.933594 L 662.570312 292 L 661.367188 279.199219 C 660.707031 272.160156 660.042969 265.859375 659.890625 265.199219 L 659.617188 264 L 577.675781 264 L 577.042969 267.066406 M 674.769531 272.667969 C 672.722656 276.554688 669.578125 282.679688 667.78125 286.28125 L 664.507812 292.832031 L 665.582031 303.617188 C 666.171875 309.546875 666.792969 315.421875 666.960938 316.667969 L 667.265625 318.933594 L 686.304688 318.933594 L 686.617188 320.933594 C 686.789062 322.035156 688.609375 337.933594 690.664062 356.265625 C 692.71875 374.601562 694.546875 390.621094 694.726562 391.867188 L 695.054688 394.132812 L 734.886719 394.132812 L 745.578125 384.421875 C 754.175781 376.609375 756.265625 374.445312 756.253906 373.355469 C 756.246094 372.609375 754.25 359.085938 751.820312 343.300781 L 747.398438 314.601562 L 756.101562 304.253906 C 761.320312 298.042969 764.800781 293.453125 764.800781 292.777344 C 764.800781 292.160156 763.839844 285.929688 762.667969 278.933594 C 761.492188 271.9375 760.535156 266.074219 760.535156 265.90625 C 760.535156 265.738281 742.074219 265.601562 719.511719 265.601562 L 678.484375 265.601562 L 674.769531 272.667969 M 270.742188 314.535156 C 266.679688 341.152344 263.246094 363.355469 263.109375 363.867188 C 262.875 364.75 264.964844 364.800781 301.539062 364.800781 L 340.21875 364.800781 L 340.496094 363.066406 C 340.816406 361.0625 342.398438 345.945312 342.398438 344.878906 C 342.398438 344.300781 338.328125 344.09375 320.945312 343.785156 C 309.144531 343.574219 299.421875 343.332031 299.332031 343.246094 C 299.246094 343.160156 300.863281 330.355469 302.921875 314.792969 C 304.980469 299.230469 306.667969 286.113281 306.667969 285.648438 C 306.667969 284.886719 308.820312 284.800781 327.660156 284.800781 L 348.652344 284.800781 L 349.257812 279.332031 C 349.585938 276.328125 350.015625 272.125 350.207031 270 L 350.554688 266.132812 L 278.125 266.132812 L 270.742188 314.535156 M 381.332031 270.164062 C 381.332031 271.5 381.144531 272.480469 380.910156 272.335938 C 380.679688 272.191406 380.574219 272.835938 380.679688 273.769531 C 380.78125 274.703125 379.777344 288.1875 378.445312 303.734375 C 374.753906 346.757812 373.332031 363.851562 373.332031 365.1875 L 373.332031 366.398438 L 389.867188 366.398438 C 398.960938 366.398438 406.398438 366.289062 406.398438 366.152344 C 406.398438 364.917969 408.585938 331.210938 408.832031 328.667969 L 409.152344 325.332031 L 419.199219 325.332031 L 419.199219 327.9375 C 419.199219 330.691406 417.847656 355.253906 417.308594 362.265625 L 416.992188 366.398438 L 450.066406 366.398438 L 450.34375 364.132812 C 450.496094 362.886719 450.871094 353.464844 451.179688 343.199219 C 451.492188 332.933594 451.886719 322.433594 452.0625 319.867188 L 452.378906 315.199219 L 441.601562 315.199219 L 441.601562 312.066406 C 441.601562 310.34375 441.75 308.183594 441.933594 307.265625 L 442.265625 305.601562 L 452.636719 305.601562 L 452.996094 292.132812 C 453.195312 284.726562 453.507812 276.207031 453.691406 273.199219 L 454.023438 267.734375 L 381.332031 267.734375 L 381.332031 270.164062 M 482.441406 286.53125 C 481.738281 319.175781 481.082031 355.566406 481.074219 362 L 481.066406 368.535156 L 514.132812 368.535156 L 514.132812 327.464844 L 524.101562 327.464844 L 524.449219 334.265625 C 524.640625 338.007812 524.796875 347.246094 524.796875 354.800781 L 524.800781 368.535156 L 558.003906 368.535156 L 557.609375 354.800781 C 557.390625 347.246094 556.699219 325.105469 556.074219 305.601562 L 554.933594 270.132812 L 518.867188 269.996094 L 482.796875 269.859375 L 482.441406 286.53125 M 582.398438 271.867188 C 582.394531 274.53125 586.644531 361.785156 586.972656 365.734375 L 587.292969 369.601562 L 620.296875 369.601562 L 619.996094 366.265625 C 619.457031 360.34375 617.601562 332.617188 617.601562 330.542969 L 617.601562 328.535156 L 659.734375 328.535156 L 659.734375 326.734375 C 659.734375 324.960938 658.164062 309.183594 657.96875 308.992188 C 657.910156 308.9375 648.445312 308.714844 636.933594 308.5 C 622.289062 308.226562 615.992188 307.933594 615.96875 307.523438 C 615.949219 307.199219 615.644531 303.035156 615.289062 298.265625 L 614.644531 289.601562 L 656 289.601562 L 655.988281 288.132812 C 655.96875 285.527344 654.4375 271.425781 654.113281 270.902344 C 653.925781 270.597656 639.9375 270.398438 618.101562 270.398438 L 582.398438 270.398438 L 582.398438 271.867188 M 682.675781 272.398438 C 682.679688 272.621094 683.160156 276.878906 683.742188 281.867188 C 684.324219 286.851562 684.800781 290.992188 684.800781 291.066406 C 684.800781 291.140625 689.453125 291.199219 695.140625 291.199219 L 705.480469 291.199219 L 705.789062 292.933594 C 706.15625 295.011719 715.734375 369.835938 715.734375 370.640625 C 715.734375 371.019531 721.074219 371.199219 732.265625 371.199219 C 741.359375 371.199219 748.800781 371.027344 748.800781 370.816406 C 748.800781 370.605469 746.160156 352.734375 742.933594 331.105469 C 739.707031 309.472656 737.066406 291.644531 737.066406 291.488281 C 737.066406 291.328125 741.585938 291.199219 747.109375 291.199219 C 752.636719 291.199219 757.261719 291.09375 757.394531 290.960938 C 757.683594 290.671875 754.855469 273.269531 754.394531 272.527344 C 754.011719 271.902344 682.660156 271.777344 682.675781 272.398438 M 410.984375 293.734375 C 410.789062 297.765625 410.488281 302.085938 410.320312 303.332031 L 410.011719 305.601562 L 420.664062 305.601562 L 421.015625 298 C 421.207031 293.820312 421.5 289.5 421.664062 288.398438 L 421.960938 286.398438 L 411.34375 286.398438 L 410.984375 293.734375 M 513.808594 289.378906 C 513.988281 289.839844 514.132812 294.160156 514.132812 298.976562 L 514.132812 307.734375 L 524.265625 307.734375 L 524.265625 288.535156 L 518.875 288.535156 C 514.179688 288.535156 513.527344 288.640625 513.808594 289.378906 "/>
<path style=" stroke:none;fill-rule:evenodd;fill:rgb(100%,100%,100%);fill-opacity:1;" d="M 307.199219 283.386719 C 307.199219 284.402344 314.308594 284.792969 332.871094 284.796875 C 347.695312 284.800781 348.152344 284.769531 348.421875 283.734375 C 348.695312 282.679688 348.4375 282.667969 327.949219 282.667969 C 310.890625 282.667969 307.199219 282.792969 307.199219 283.386719 M 411.734375 284.988281 C 411.734375 285.492188 412.828125 285.816406 415.332031 286.050781 C 421.226562 286.609375 421.867188 286.539062 421.867188 285.332031 C 421.867188 284.339844 421.511719 284.265625 416.800781 284.265625 C 412.890625 284.265625 411.734375 284.433594 411.734375 284.988281 M 513.601562 287.464844 C 513.601562 288.460938 513.957031 288.535156 518.933594 288.535156 C 523.910156 288.535156 524.265625 288.460938 524.265625 287.464844 C 524.265625 286.472656 523.910156 286.398438 518.933594 286.398438 C 513.957031 286.398438 513.601562 286.472656 513.601562 287.464844 M 614.398438 287.992188 C 614.398438 289.050781 614.714844 289.066406 635.238281 289.066406 C 654.800781 289.066406 656.066406 289.007812 655.898438 288.132812 C 655.730469 287.265625 654.246094 287.191406 635.058594 287.058594 C 614.667969 286.921875 614.398438 286.933594 614.398438 287.992188 M 684.898438 289.453125 C 685.0625 290.316406 686.011719 290.414062 695.382812 290.546875 C 704.996094 290.679688 705.671875 290.628906 705.5 289.746094 C 705.335938 288.886719 704.386719 288.785156 695.019531 288.65625 C 685.402344 288.519531 684.730469 288.574219 684.898438 289.453125 M 736.632812 289.453125 C 736.796875 290.316406 737.746094 290.414062 747.113281 290.546875 C 756.730469 290.679688 757.402344 290.628906 757.234375 289.746094 C 757.070312 288.886719 756.121094 288.785156 746.753906 288.65625 C 737.136719 288.519531 736.464844 288.574219 736.632812 289.453125 M 583.65625 292.398438 C 583.839844 293.941406 583.992188 295.980469 583.996094 296.933594 L 584 298.667969 L 594.285156 298.667969 L 593.941406 295.386719 C 593.753906 293.585938 593.601562 291.546875 593.601562 290.855469 C 593.601562 289.625 593.5 289.601562 588.460938 289.601562 L 583.316406 289.601562 L 583.65625 292.398438 M 706.355469 294.246094 C 706.550781 295.945312 706.839844 297.992188 706.996094 298.800781 L 707.285156 300.265625 L 717.382812 300.265625 L 717.0625 298.535156 C 716.886719 297.578125 716.570312 295.601562 716.363281 294.132812 L 715.988281 291.464844 L 706.003906 291.160156 L 706.355469 294.246094 M 273.960938 295.601562 C 273.804688 296.257812 273.519531 298 273.328125 299.464844 C 273.132812 300.933594 272.859375 302.554688 272.71875 303.066406 C 272.488281 303.910156 272.960938 304 277.5625 304 C 282.28125 304 282.667969 304.078125 282.667969 305.046875 C 282.667969 306.007812 282.226562 306.109375 277.472656 306.246094 L 272.277344 306.398438 L 271.921875 308.800781 C 271.726562 310.121094 269.742188 323.019531 267.515625 337.464844 C 265.289062 351.914062 263.464844 363.851562 263.464844 364 C 263.464844 364.148438 280.710938 364.265625 301.789062 364.265625 L 340.113281 364.265625 L 341.03125 355.066406 C 341.539062 350.007812 342.066406 345.445312 342.210938 344.933594 C 342.457031 344.054688 341.171875 344 320.582031 344 L 298.691406 344 L 298.945312 342.535156 C 299.300781 340.464844 302.808594 313.488281 303.242188 309.464844 L 303.605469 306.132812 L 298.519531 306.132812 C 293.695312 306.132812 293.449219 306.078125 293.710938 305.066406 C 293.976562 304.050781 293.730469 304 288.535156 304 L 283.082031 304 L 283.378906 302.265625 C 283.542969 301.3125 283.835938 299.152344 284.03125 297.464844 L 284.390625 294.398438 L 279.320312 294.398438 C 274.5 294.398438 274.234375 294.460938 273.960938 295.601562 M 379.199219 297.523438 C 379.199219 298.359375 379.046875 300.519531 378.859375 302.320312 L 378.515625 305.601562 L 383.65625 305.601562 C 388.414062 305.601562 388.800781 305.679688 388.800781 306.648438 C 388.800781 307.605469 388.359375 307.707031 383.601562 307.847656 L 378.40625 308 L 376.210938 333.867188 C 375.003906 348.09375 373.902344 361.117188 373.765625 362.808594 L 373.511719 365.882812 L 389.824219 365.742188 L 406.132812 365.601562 L 407.355469 345.867188 C 408.027344 335.011719 408.695312 325.796875 408.835938 325.386719 C 409.042969 324.785156 410.085938 324.707031 414.226562 324.976562 C 417.050781 325.164062 419.460938 325.417969 419.585938 325.542969 C 419.710938 325.667969 419.316406 334.136719 418.707031 344.359375 C 418.097656 354.582031 417.601562 363.605469 417.601562 364.40625 L 417.601562 365.867188 L 450.132812 365.867188 L 450.144531 363.332031 C 450.148438 361.941406 450.503906 351.921875 450.933594 341.066406 C 451.359375 330.214844 451.714844 320.074219 451.722656 318.535156 L 451.734375 315.734375 L 446.699219 315.734375 C 443.929688 315.734375 441.5625 315.554688 441.4375 315.332031 C 441.3125 315.113281 441.328125 312.832031 441.472656 310.265625 L 441.734375 305.601562 L 452.265625 305.601562 L 452.265625 296 L 442.132812 296 L 442.128906 298.800781 C 442.125 300.339844 441.972656 302.5 441.789062 303.601562 L 441.460938 305.601562 L 436.195312 305.601562 C 430.9375 305.601562 430.933594 305.601562 430.933594 306.933594 C 430.933594 308.261719 430.914062 308.265625 425.867188 308.265625 L 420.800781 308.265625 L 420.800781 305.5625 L 415.332031 305.714844 C 410.03125 305.863281 409.863281 305.90625 409.6875 307.136719 C 409.515625 308.335938 409.359375 308.386719 406.753906 308.074219 C 405.238281 307.890625 403.023438 307.742188 401.828125 307.738281 L 399.65625 307.734375 L 400.132812 296 L 379.199219 296 L 379.199219 297.523438 M 482.453125 305.199219 C 482.152344 311.742188 481.164062 367.566406 481.34375 367.867188 C 481.386719 367.941406 488.664062 368.160156 497.511719 368.351562 L 513.601562 368.707031 L 513.601562 327.464844 L 524.800781 327.464844 L 524.800781 338.316406 C 524.800781 344.28125 524.957031 353.519531 525.152344 358.847656 L 525.5 368.535156 L 557.929688 368.535156 L 557.628906 363.601562 C 557.464844 360.886719 557.089844 349.667969 556.800781 338.667969 C 556.507812 327.667969 556.125 316.207031 555.949219 313.199219 L 555.632812 307.734375 L 545.601562 307.734375 L 545.601562 304.601562 C 545.601562 302.875 545.449219 300.71875 545.265625 299.800781 L 544.933594 298.132812 L 534.933594 298.132812 L 534.933594 307.734375 L 524.265625 307.734375 L 524.265625 309.066406 C 524.265625 310.394531 524.25 310.398438 519.199219 310.398438 C 514.152344 310.398438 514.132812 310.394531 514.132812 309.066406 L 514.132812 307.734375 L 502.933594 307.734375 L 502.933594 309.066406 C 502.933594 310.394531 502.914062 310.398438 497.867188 310.398438 L 492.800781 310.398438 L 492.800781 298.132812 L 482.777344 298.132812 L 482.453125 305.199219 M 594.527344 298.980469 C 594.355469 299.15625 594.351562 301.917969 594.519531 305.117188 L 594.828125 310.933594 L 584.46875 310.933594 L 584.789062 315.867188 C 585.273438 323.316406 587.199219 363.914062 587.199219 366.664062 L 587.199219 369.066406 L 603.464844 369.066406 C 618.835938 369.066406 619.734375 369.011719 619.734375 368.097656 C 619.734375 367.5625 619.132812 358.625 618.402344 348.230469 C 617.671875 337.835938 617.070312 329.035156 617.070312 328.667969 C 617.066406 328.144531 621.691406 328 638.425781 328 L 659.78125 328 L 659.507812 326.265625 C 659.355469 325.3125 658.953125 321.472656 658.609375 317.734375 L 657.992188 310.933594 L 647.660156 310.933594 C 637.6875 310.933594 637.332031 310.898438 637.332031 309.867188 C 637.332031 308.835938 636.976562 308.800781 626.476562 308.800781 L 615.617188 308.800781 L 615.332031 304.199219 C 615.140625 301.175781 614.796875 299.441406 614.320312 299.140625 C 613.519531 298.632812 595.027344 298.484375 594.527344 298.980469 M 717.53125 302.265625 C 717.683594 303.074219 717.96875 305.234375 718.15625 307.066406 L 718.503906 310.398438 L 723.785156 310.398438 C 728.710938 310.398438 729.066406 310.472656 729.066406 311.464844 C 729.066406 312.496094 728.710938 312.535156 718.933594 312.535156 C 713.359375 312.535156 708.800781 312.714844 708.800781 312.933594 C 708.800781 313.734375 715.777344 368.304688 716.027344 369.464844 L 716.285156 370.667969 L 732.277344 370.667969 C 744.707031 370.667969 748.269531 370.519531 748.28125 370 C 748.289062 369.632812 746.308594 355.953125 743.886719 339.601562 L 739.476562 309.867188 L 729.238281 309.867188 L 728.5625 305.332031 L 727.890625 300.800781 L 717.25 300.800781 L 717.53125 302.265625 M 605.710938 309.867188 C 605.964844 310.839844 606.441406 310.933594 611.054688 310.933594 C 615.449219 310.933594 616.070312 310.824219 615.789062 310.089844 C 615.613281 309.625 615.464844 309.144531 615.464844 309.023438 C 615.464844 308.898438 613.210938 308.800781 610.449219 308.800781 C 605.695312 308.800781 605.449219 308.855469 605.710938 309.867188 "/>
<path style=" stroke:none;fill-rule:evenodd;fill:rgb(73.333335%,79.215688%,83.137256%);fill-opacity:1;" d="M 278.15625 267.332031 C 278.011719 267.992188 277.035156 274.171875 275.988281 281.066406 C 274.941406 287.960938 274.011719 294.078125 273.921875 294.667969 C 273.828125 295.253906 273.859375 295.433594 273.984375 295.066406 C 274.144531 294.597656 275.707031 294.398438 279.300781 294.398438 L 284.390625 294.398438 L 284.03125 297.464844 C 283.835938 299.152344 283.542969 301.3125 283.378906 302.265625 L 283.082031 304 L 288.535156 304 C 293.730469 304 293.976562 304.050781 293.710938 305.066406 C 293.449219 306.078125 293.695312 306.132812 298.40625 306.132812 C 301.640625 306.132812 303.449219 306.34375 303.578125 306.738281 C 303.691406 307.070312 304.324219 303.050781 304.988281 297.804688 C 305.648438 292.558594 306.324219 287.488281 306.488281 286.535156 L 306.785156 284.800781 L 310.59375 284.695312 L 314.398438 284.589844 L 310.800781 284.402344 C 308.089844 284.265625 307.199219 284.027344 307.199219 283.441406 C 307.199219 282.777344 310.15625 282.667969 328 282.667969 C 339.441406 282.667969 348.804688 282.488281 348.8125 282.265625 C 348.816406 282.046875 349.171875 278.625 349.601562 274.667969 C 350.027344 270.707031 350.382812 267.167969 350.390625 266.800781 C 350.398438 266.273438 342.851562 266.132812 314.410156 266.132812 L 278.421875 266.132812 L 278.15625 267.332031 M 381.636719 268.933594 C 381.5 269.59375 381.011719 274.8125 380.550781 280.535156 C 380.09375 286.253906 379.578125 292.074219 379.410156 293.464844 L 379.101562 296 L 400.132812 296 L 399.664062 307.585938 L 404.453125 307.925781 C 407.089844 308.113281 409.335938 308.175781 409.445312 308.066406 C 409.726562 307.785156 410.558594 299.0625 410.964844 292.132812 L 411.300781 286.398438 L 414.050781 286.304688 L 416.800781 286.207031 L 414.265625 286.007812 C 412.503906 285.871094 411.734375 285.574219 411.734375 285.039062 C 411.734375 284.417969 412.746094 284.265625 416.878906 284.265625 L 422.023438 284.265625 L 421.6875 289.734375 C 421.5 292.742188 421.1875 298.140625 420.992188 301.734375 L 420.640625 308.265625 L 425.785156 308.265625 C 430.921875 308.265625 430.933594 308.261719 430.933594 306.933594 C 430.933594 305.601562 430.9375 305.601562 436.195312 305.601562 L 441.460938 305.601562 L 441.789062 303.601562 C 441.972656 302.5 442.125 300.339844 442.128906 298.800781 L 442.132812 296 L 452.210938 296 L 452.371094 298.800781 C 452.460938 300.339844 452.722656 295 452.953125 286.933594 C 453.183594 278.867188 453.511719 271.246094 453.679688 270 L 453.988281 267.734375 L 381.886719 267.734375 L 381.636719 268.933594 M 482.667969 280.984375 C 482.667969 287.097656 482.578125 294.957031 482.46875 298.449219 C 482.363281 301.941406 482.375 303.300781 482.496094 301.464844 L 482.714844 298.132812 L 492.800781 298.132812 L 492.800781 310.398438 L 497.867188 310.398438 C 502.914062 310.398438 502.933594 310.394531 502.933594 309.066406 L 502.933594 307.734375 L 513.601562 307.734375 L 513.601562 286.398438 L 524.265625 286.398438 L 524.265625 307.734375 L 519.199219 307.734375 C 514.152344 307.734375 514.132812 307.738281 514.132812 309.066406 C 514.132812 310.394531 514.152344 310.398438 519.199219 310.398438 C 524.25 310.398438 524.265625 310.394531 524.265625 309.066406 L 524.265625 307.734375 L 534.933594 307.734375 L 534.933594 298.132812 L 544.933594 298.132812 L 545.265625 299.800781 C 545.449219 300.71875 545.601562 302.875 545.601562 304.601562 L 545.601562 307.734375 L 555.734375 307.734375 L 555.734375 310.488281 C 555.734375 312.003906 555.839844 313.136719 555.96875 313.007812 C 556.132812 312.847656 554.902344 271.664062 554.683594 270 C 554.675781 269.925781 538.464844 269.867188 518.667969 269.867188 L 482.667969 269.867188 L 482.667969 280.984375 M 582.644531 275.515625 C 582.820312 278.421875 583.097656 282.78125 583.261719 285.199219 L 583.5625 289.601562 L 588.582031 289.601562 C 593.496094 289.601562 593.601562 289.625 593.601562 290.855469 C 593.601562 291.546875 593.753906 293.585938 593.941406 295.386719 L 594.285156 298.667969 L 584 298.667969 L 584.007812 302.800781 C 584.007812 305.074219 584.160156 307.832031 584.34375 308.933594 L 584.671875 310.933594 L 594.796875 310.933594 L 594.398438 298.933594 L 603.464844 298.78125 C 613.820312 298.609375 614.78125 298.742188 615.078125 300.402344 C 615.332031 301.828125 615.011719 296.367188 614.609375 292.40625 L 614.324219 289.613281 L 635.296875 289.464844 L 656.265625 289.320312 L 635.332031 289.195312 C 614.71875 289.070312 614.398438 289.050781 614.398438 287.988281 C 614.398438 286.921875 614.628906 286.910156 635.195312 287.054688 C 653.464844 287.183594 655.960938 287.101562 655.769531 286.398438 C 655.648438 285.960938 655.253906 282.300781 654.894531 278.265625 L 654.238281 270.933594 L 629.921875 270.933594 C 616.542969 270.929688 600.363281 270.773438 593.960938 270.578125 L 582.324219 270.226562 L 582.644531 275.515625 M 683.078125 272.300781 C 682.921875 272.453125 684.390625 286.320312 684.777344 288.386719 C 684.789062 288.457031 689.417969 288.574219 695.066406 288.65625 L 705.332031 288.800781 L 705.664062 290.667969 C 705.84375 291.691406 706.023438 292.222656 706.0625 291.847656 C 706.117188 291.328125 707.34375 291.199219 711.0625 291.3125 L 715.988281 291.464844 L 716.363281 294.132812 C 716.570312 295.601562 716.886719 297.578125 717.0625 298.535156 L 717.382812 300.265625 L 712.332031 300.265625 C 708.765625 300.265625 707.210938 300.070312 707.050781 299.601562 C 706.925781 299.234375 706.886719 299.414062 706.964844 300 C 707.042969 300.585938 707.414062 303.644531 707.789062 306.800781 L 708.46875 312.535156 L 718.765625 312.535156 C 728.710938 312.535156 729.066406 312.496094 729.066406 311.464844 C 729.066406 310.472656 728.710938 310.398438 723.785156 310.398438 L 718.503906 310.398438 L 718.15625 307.066406 C 717.96875 305.234375 717.683594 303.074219 717.53125 302.265625 L 717.25 300.800781 L 727.890625 300.800781 L 728.5625 305.332031 L 729.238281 309.867188 L 739.570312 309.867188 L 738.339844 301.734375 C 737.664062 297.257812 737.101562 293.058594 737.089844 292.398438 C 737.066406 291.199219 737.070312 291.199219 747.332031 291.085938 L 757.601562 290.96875 L 747.207031 290.683594 C 737.769531 290.425781 736.796875 290.3125 736.628906 289.445312 C 736.457031 288.546875 737.089844 288.5 746.773438 288.644531 L 757.097656 288.800781 L 755.824219 280.800781 C 755.128906 276.398438 754.519531 272.773438 754.476562 272.738281 C 754.246094 272.554688 683.257812 272.121094 683.078125 272.300781 M 272.535156 304.488281 C 272.535156 304.757812 272.410156 305.300781 272.257812 305.691406 C 272.039062 306.257812 273.046875 306.367188 277.324219 306.230469 C 282.191406 306.078125 282.667969 305.96875 282.667969 305.03125 C 282.667969 304.085938 282.253906 304 277.601562 304 C 274.8125 304 272.535156 304.21875 272.535156 304.488281 M 378.488281 305.957031 C 378.292969 306.152344 378.132812 306.691406 378.132812 307.15625 C 378.132812 307.882812 378.882812 307.976562 383.464844 307.832031 C 388.324219 307.675781 388.800781 307.570312 388.800781 306.632812 C 388.800781 305.683594 388.386719 305.601562 383.824219 305.601562 C 381.085938 305.601562 378.683594 305.761719 378.488281 305.957031 M 615.464844 308 C 615.464844 308.65625 614.554688 308.800781 610.449219 308.800781 C 605.695312 308.800781 605.449219 308.855469 605.710938 309.867188 C 605.964844 310.835938 606.441406 310.933594 610.890625 310.933594 L 615.789062 310.933594 L 615.839844 309.066406 C 615.871094 308.039062 615.796875 307.199219 615.679688 307.199219 C 615.5625 307.199219 615.464844 307.558594 615.464844 308 M 637.332031 309.867188 C 637.332031 310.898438 637.6875 310.933594 647.734375 310.933594 C 657.777344 310.933594 658.132812 310.898438 658.132812 309.867188 C 658.132812 308.835938 657.777344 308.800781 647.734375 308.800781 C 637.6875 308.800781 637.332031 308.835938 637.332031 309.867188 M 441.246094 314.132812 C 441.332031 315.441406 441.429688 315.472656 446.75 315.734375 C 449.730469 315.878906 452.054688 315.820312 451.917969 315.601562 C 451.78125 315.378906 449.421875 315.199219 446.671875 315.199219 C 441.921875 315.199219 441.660156 315.140625 441.417969 314 C 441.1875 312.941406 441.167969 312.957031 441.246094 314.132812 M 481.800781 328 C 481.800781 331.375 481.886719 332.753906 481.992188 331.066406 C 482.101562 329.378906 482.101562 326.621094 481.992188 324.933594 C 481.886719 323.246094 481.800781 324.625 481.800781 328 M 513.84375 348 C 513.84375 359.441406 513.914062 364.042969 514 358.230469 C 514.085938 352.417969 514.085938 343.058594 514 337.429688 C 513.914062 331.804688 513.84375 336.558594 513.84375 348 M 627.601562 328.398438 C 633.539062 328.484375 643.257812 328.484375 649.199219 328.398438 C 655.140625 328.3125 650.28125 328.242188 638.398438 328.242188 C 626.519531 328.242188 621.660156 328.3125 627.601562 328.398438 M 481.269531 358.933594 C 481.269531 362.308594 481.355469 363.6875 481.460938 362 C 481.566406 360.3125 481.566406 357.554688 481.460938 355.867188 C 481.355469 354.179688 481.269531 355.558594 481.269531 358.933594 M 525.003906 362.132812 C 525.003906 365.800781 525.089844 367.300781 525.195312 365.464844 C 525.300781 363.632812 525.300781 360.632812 525.195312 358.800781 C 525.089844 356.96875 525.003906 358.464844 525.003906 362.132812 M 282.535156 364.667969 C 293.167969 364.746094 310.566406 364.746094 321.199219 364.667969 C 331.832031 364.585938 323.132812 364.519531 301.867188 364.519531 C 280.601562 364.519531 271.898438 364.585938 282.535156 364.667969 M 389.601562 365.867188 L 373.066406 366.15625 L 389.734375 366.277344 C 400.570312 366.355469 406.398438 366.214844 406.398438 365.867188 C 406.398438 365.574219 406.339844 365.386719 406.265625 365.453125 C 406.191406 365.523438 398.691406 365.707031 389.601562 365.867188 M 417.527344 366.007812 C 417.753906 366.234375 425.242188 366.351562 434.167969 366.273438 L 450.398438 366.132812 L 433.757812 365.867188 C 424.605469 365.71875 417.304688 365.785156 417.527344 366.007812 M 483.886719 368.394531 C 485.582031 368.5 488.222656 368.5 489.753906 368.390625 C 491.28125 368.285156 489.894531 368.199219 486.667969 368.199219 C 483.441406 368.199219 482.1875 368.289062 483.886719 368.394531 M 715.949219 370.253906 C 716.058594 370.78125 719.707031 370.964844 732.445312 371.074219 C 747.785156 371.207031 748.796875 371.15625 748.757812 370.273438 C 748.734375 369.714844 748.605469 369.605469 748.445312 370 C 748.097656 370.863281 716.511719 370.980469 716.085938 370.121094 C 715.933594 369.820312 715.875 369.878906 715.949219 370.253906 "/>
<path style=" stroke:none;fill-rule:evenodd;fill:rgb(98.039216%,89.411765%,0%);fill-opacity:1;" d="M 224 160.625 C 224 160.746094 222.589844 167.796875 220.867188 176.289062 C 219.144531 184.785156 217.574219 192.632812 217.375 193.734375 L 217.019531 195.734375 L 251.441406 195.734375 C 285.511719 195.734375 285.867188 195.722656 285.867188 194.667969 C 285.867188 193.621094 285.511719 193.601562 266.132812 193.601562 C 255.28125 193.601562 246.398438 193.496094 246.398438 193.367188 C 246.398438 193.242188 246.628906 192.535156 246.910156 191.796875 C 247.410156 190.476562 247.375 190.453125 243.441406 189.792969 C 241.253906 189.425781 239.464844 188.976562 239.464844 188.792969 C 239.464844 188.609375 241.347656 188.152344 243.648438 187.78125 L 247.832031 187.101562 L 248.757812 181.804688 L 249.6875 176.507812 L 269.097656 176.652344 L 288.507812 176.800781 L 288.769531 175.464844 C 288.914062 174.734375 289.40625 171.734375 289.867188 168.800781 C 290.328125 165.867188 290.820312 162.925781 290.960938 162.265625 C 291.21875 161.074219 291.179688 161.066406 284.792969 161.066406 L 278.371094 161.066406 L 276.984375 164.257812 C 275.433594 167.832031 274.671875 167.957031 274.660156 164.636719 C 274.644531 160.585938 276.449219 160.867188 248.832031 160.621094 C 235.175781 160.5 224 160.503906 224 160.625 M 309.152344 175.601562 C 308.054688 183.59375 307.011719 191.394531 306.835938 192.933594 L 306.519531 195.734375 L 335.402344 195.734375 L 335.730469 193.199219 C 335.910156 191.804688 336.179688 189.789062 336.332031 188.714844 C 336.636719 186.574219 336.558594 186.511719 332.535156 185.828125 C 328.59375 185.15625 328.707031 184.667969 332.964844 183.980469 C 335.222656 183.617188 337.066406 183.160156 337.066406 182.960938 C 337.066406 182.359375 339.175781 165.191406 339.511719 163.066406 L 339.828125 161.066406 L 311.144531 161.066406 L 309.152344 175.601562 M 384.507812 161.648438 C 384.492188 162.0625 383.820312 170.019531 383.011719 179.332031 L 381.546875 196.265625 L 415.839844 196.265625 C 449.777344 196.265625 450.132812 196.253906 450.132812 195.199219 C 450.132812 194.152344 449.777344 194.132812 430.339844 194.132812 L 410.546875 194.132812 L 410.777344 192.5625 C 411.003906 191.007812 410.976562 190.992188 407.34375 190.339844 C 405.332031 189.980469 403.589844 189.53125 403.472656 189.34375 C 403.355469 189.152344 405.027344 188.703125 407.183594 188.339844 L 411.109375 187.679688 L 411.457031 183.039062 C 411.648438 180.488281 411.917969 178.0625 412.050781 177.648438 C 412.257812 177.015625 415.246094 176.945312 431.40625 177.214844 L 450.511719 177.53125 L 450.855469 173.164062 C 451.039062 170.765625 451.195312 167.171875 451.195312 165.183594 L 451.199219 161.566406 L 444.976562 161.714844 L 438.753906 161.867188 L 437.582031 165.332031 L 436.410156 168.800781 L 435.859375 166.667969 C 435.554688 165.492188 435.160156 163.875 434.976562 163.066406 L 434.644531 161.601562 L 427.589844 161.597656 C 423.707031 161.597656 412.433594 161.441406 402.535156 161.246094 C 387.230469 160.945312 384.527344 161.007812 384.507812 161.648438 M 477.332031 174.527344 C 477.328125 181.644531 477.171875 189.445312 476.984375 191.867188 L 476.640625 196.265625 L 506.132812 196.265625 L 506.132812 187.277344 L 503.066406 186.679688 C 497.691406 185.636719 497.539062 185.320312 502.03125 184.550781 L 506.132812 183.847656 L 506.132812 177.601562 L 544.5625 177.601562 L 544.265625 161.867188 L 510.800781 161.730469 L 477.332031 161.59375 L 477.332031 174.527344 M 561.070312 165.464844 C 561.070312 167.300781 561.226562 170.78125 561.414062 173.199219 L 561.757812 177.601562 L 580.675781 177.601562 L 580.988281 180.933594 C 581.160156 182.765625 581.457031 187.085938 581.648438 190.535156 L 581.996094 196.800781 L 610.820312 196.800781 L 610.46875 191.867188 C 610.277344 189.152344 609.96875 184.953125 609.789062 182.535156 L 609.453125 178.132812 L 628.800781 178.132812 L 628.800781 176.835938 C 628.800781 175.429688 628.679688 175.371094 623.734375 174.339844 L 620.535156 173.671875 L 623.199219 173.019531 C 624.667969 172.664062 626.441406 172.347656 627.140625 172.316406 C 628.359375 172.269531 628.402344 172.148438 628.078125 169.464844 C 627.894531 167.925781 627.742188 165.644531 627.738281 164.398438 L 627.734375 162.132812 L 561.066406 162.132812 L 561.070312 165.464844 M 653.882812 163.25 C 653.914062 165.507812 657.375 196.21875 657.625 196.457031 C 657.757812 196.582031 670.859375 196.859375 686.738281 197.074219 L 715.609375 197.464844 L 715.34375 196.066406 L 715.074219 194.667969 L 724.867188 194.667969 L 724.496094 192.132812 C 722.488281 178.308594 720.109375 163.132812 719.925781 162.949219 C 719.800781 162.824219 704.886719 162.550781 686.785156 162.34375 L 653.867188 161.964844 L 653.882812 163.25 M 746.796875 163.332031 C 746.929688 163.699219 748.328125 171.5 749.90625 180.667969 L 752.777344 197.332031 L 820.28125 197.332031 L 819.925781 195.066406 C 819.730469 193.820312 819.351562 192.65625 819.082031 192.480469 C 818.8125 192.300781 816.867188 191.847656 814.761719 191.472656 C 810.550781 190.71875 810.863281 190.230469 815.988281 189.550781 C 818.363281 189.234375 818.621094 189.074219 818.378906 188.066406 C 818.226562 187.441406 816.949219 181.535156 815.539062 174.933594 L 812.976562 162.933594 L 798.824219 162.792969 L 784.667969 162.648438 L 787 173.953125 C 788.285156 180.167969 789.332031 185.703125 789.332031 186.246094 C 789.332031 187.15625 788.910156 187.226562 784.429688 187.085938 L 779.527344 186.933594 L 777.257812 174.933594 C 776.007812 168.332031 774.976562 162.875 774.960938 162.800781 C 774.945312 162.726562 772.296875 162.667969 769.078125 162.667969 C 762.476562 162.667969 762.859375 162.382812 762.523438 167.464844 L 762.363281 169.867188 L 760.640625 166.265625 L 758.921875 162.667969 L 752.738281 162.667969 C 748.015625 162.667969 746.609375 162.824219 746.796875 163.332031 M 684.269531 179.601562 C 684.273438 180.40625 684.632812 183.9375 685.070312 187.445312 C 685.507812 190.957031 685.867188 194.136719 685.867188 194.511719 C 685.867188 195.023438 687.15625 195.199219 690.933594 195.199219 C 695.484375 195.199219 696 195.101562 696 194.226562 C 696 193.234375 694.660156 183.015625 694.117188 179.867188 L 693.816406 178.132812 L 684.265625 178.132812 L 684.269531 179.601562 M 716.898438 204.667969 C 717.050781 205.457031 717.796875 205.625 721.738281 205.753906 C 726.125 205.898438 726.398438 205.84375 726.398438 204.820312 C 726.398438 203.804688 726.074219 203.734375 721.5625 203.734375 C 717.238281 203.734375 716.742188 203.832031 716.898438 204.667969 M 240.535156 228.738281 L 240.535156 229.867188 L 260.535156 229.867188 C 277.957031 229.867188 280.535156 229.765625 280.535156 229.066406 C 280.535156 228.371094 278.085938 228.265625 261.734375 228.257812 C 251.394531 228.253906 242.394531 228.105469 241.734375 227.929688 C 240.765625 227.671875 240.535156 227.828125 240.535156 228.738281 M 331.734375 229.332031 C 331.734375 230.375 332.089844 230.398438 346.667969 230.398438 C 361.246094 230.398438 361.601562 230.375 361.601562 229.332031 C 361.601562 228.292969 361.246094 228.265625 346.667969 228.265625 C 332.089844 228.265625 331.734375 228.292969 331.734375 229.332031 M 408.535156 229.332031 C 408.535156 230.378906 408.890625 230.398438 428.535156 230.398438 C 444.894531 230.398438 448.535156 230.269531 448.535156 229.683594 C 448.535156 229.117188 445.835938 228.898438 435.332031 228.621094 C 428.074219 228.425781 419.074219 228.269531 415.332031 228.269531 C 408.886719 228.265625 408.535156 228.320312 408.535156 229.332031 M 506.132812 229.519531 C 506.132812 230.507812 513.84375 230.933594 531.816406 230.933594 C 545.777344 230.933594 546.132812 230.90625 546.132812 229.867188 C 546.132812 228.820312 545.777344 228.800781 526.132812 228.800781 C 509.714844 228.800781 506.132812 228.929688 506.132812 229.519531 "/>
<path style=" stroke:none;fill-rule:evenodd;fill:rgb(61.176473%,43.529412%,0%);fill-opacity:1;" d="M 278.214844 160.933594 C 278.078125 161.152344 280.042969 161.269531 282.582031 161.191406 C 290.726562 160.9375 291.644531 160.722656 284.964844 160.625 C 281.390625 160.574219 278.351562 160.714844 278.214844 160.933594 M 315.332031 160.929688 C 317.898438 161.027344 322.101562 161.027344 324.667969 160.929688 C 327.234375 160.832031 325.132812 160.753906 320 160.753906 C 314.867188 160.753906 312.765625 160.832031 315.332031 160.929688 M 423.707031 161.460938 C 431.355469 161.578125 434.480469 161.808594 434.816406 162.277344 C 435.152344 162.753906 435.222656 162.714844 435.0625 162.132812 C 434.878906 161.457031 433.171875 161.332031 423.957031 161.316406 L 413.066406 161.296875 L 423.707031 161.460938 M 438.757812 161.449219 C 438.617188 161.679688 441.339844 161.792969 444.816406 161.703125 L 451.132812 161.539062 L 451.578125 165.34375 L 451.523438 163.339844 L 451.464844 161.332031 L 445.242188 161.183594 C 441.816406 161.101562 438.898438 161.222656 438.757812 161.449219 M 560.613281 163.332031 C 560.6875 164.941406 560.710938 164.960938 560.914062 163.605469 L 561.136719 162.144531 L 614.667969 161.855469 L 587.601562 161.730469 L 560.535156 161.601562 L 560.613281 163.332031 M 702.132812 162.5 C 711.292969 162.882812 720.414062 162.898438 720.1875 162.535156 C 720.050781 162.3125 715.089844 162.179688 709.167969 162.238281 C 703.246094 162.296875 700.078125 162.414062 702.132812 162.5 M 749.199219 162.527344 C 750.742188 162.632812 753.257812 162.632812 754.800781 162.527344 C 756.339844 162.417969 755.078125 162.332031 752 162.332031 C 748.921875 162.332031 747.660156 162.417969 749.199219 162.527344 M 544.625 174.792969 L 544.535156 177.585938 L 528.398438 177.734375 L 512.265625 177.882812 L 528.417969 178.007812 C 546.390625 178.148438 545.289062 178.394531 544.925781 174.328125 C 544.722656 172.019531 544.71875 172.023438 544.625 174.792969 M 561.28125 174.933594 L 561.332031 177.867188 L 570.667969 177.886719 L 580 177.902344 L 561.65625 177.574219 L 561.441406 174.789062 L 561.230469 172 L 561.28125 174.933594 M 477.007812 182.933594 C 477.007812 186.894531 477.09375 188.511719 477.195312 186.535156 C 477.296875 184.554688 477.296875 181.3125 477.195312 179.332031 C 477.09375 177.355469 477.007812 178.972656 477.007812 182.933594 M 256.101562 176.933594 C 259.824219 177.023438 266.066406 177.023438 269.96875 176.933594 C 273.871094 176.839844 270.828125 176.765625 263.199219 176.765625 C 255.574219 176.765625 252.378906 176.839844 256.101562 176.933594 M 411.933594 177.847656 C 411.769531 178.28125 411.757812 178.9375 411.90625 179.316406 C 412.058594 179.691406 412.203125 179.464844 412.222656 178.8125 C 412.265625 177.648438 412.414062 177.625 420.398438 177.464844 L 428.535156 177.304688 L 420.382812 177.183594 C 413.636719 177.085938 412.179688 177.199219 411.933594 177.847656 M 779.371094 185.867188 C 779.46875 186.84375 779.882812 186.9375 784.273438 186.964844 L 789.066406 186.992188 L 784.433594 186.8125 C 780.621094 186.660156 779.757812 186.464844 779.53125 185.714844 C 779.332031 185.035156 779.289062 185.074219 779.371094 185.867188 M 685.875 194.265625 C 685.867188 195.101562 686.425781 195.1875 691.066406 195.089844 L 696.265625 194.980469 L 691.484375 194.800781 C 688.507812 194.691406 686.546875 194.378906 686.292969 193.976562 C 686.011719 193.535156 685.878906 193.628906 685.875 194.265625 M 720.132812 194.53125 C 715.429688 194.699219 715.203125 194.761719 715.261719 195.886719 C 715.308594 196.789062 715.382812 196.847656 715.566406 196.132812 C 715.777344 195.332031 716.488281 195.199219 720.574219 195.199219 C 723.390625 195.199219 725.332031 194.980469 725.332031 194.667969 C 725.332031 194.375 725.273438 194.183594 725.199219 194.246094 C 725.125 194.304688 722.847656 194.433594 720.132812 194.53125 M 449.601562 198.3125 L 449.601562 200.535156 L 381.40625 200.535156 L 381.175781 199.332031 C 380.992188 198.386719 380.929688 198.472656 380.867188 199.734375 C 380.824219 200.613281 379.957031 211.054688 378.933594 222.933594 C 377.910156 234.8125 377.074219 244.832031 377.070312 245.199219 C 377.066406 245.707031 379.210938 245.867188 386.019531 245.867188 L 394.972656 245.867188 L 396.253906 242.164062 C 396.960938 240.128906 397.714844 238.574219 397.933594 238.707031 C 398.148438 238.839844 398.484375 240.230469 398.679688 241.792969 C 398.875 243.355469 399.191406 244.878906 399.382812 245.179688 C 399.609375 245.523438 408.390625 245.816406 423.816406 245.992188 L 447.902344 246.261719 L 448.226562 240.0625 C 448.402344 236.65625 448.667969 232.605469 448.8125 231.066406 L 449.074219 228.265625 L 444.535156 228.445312 L 446.535156 228.65625 C 447.820312 228.789062 448.535156 229.136719 448.535156 229.632812 C 448.535156 230.285156 445.574219 230.398438 428.457031 230.398438 L 408.378906 230.398438 L 408.71875 226.265625 C 408.90625 223.992188 409.214844 219.671875 409.410156 216.667969 L 409.761719 211.199219 L 449.472656 211.199219 L 449.859375 203.96875 C 450.070312 199.988281 450.101562 196.589844 449.921875 196.410156 C 449.746094 196.234375 449.601562 197.089844 449.601562 198.3125 M 334.933594 198.84375 L 334.933594 200 L 305.621094 200 L 305.34375 201.199219 C 305.089844 202.3125 299.199219 244.8125 299.199219 245.539062 C 299.199219 245.71875 300.945312 245.867188 303.078125 245.867188 L 306.953125 245.867188 L 308.519531 241.769531 C 310.242188 237.25 310.351562 237.3125 311.183594 243.339844 L 311.535156 245.878906 L 335.898438 245.738281 L 360.265625 245.601562 L 360.894531 239.199219 C 361.238281 235.679688 361.621094 231.839844 361.742188 230.667969 C 361.863281 229.492188 361.867188 228.953125 361.746094 229.464844 C 361.542969 230.328125 360.378906 230.398438 346.628906 230.398438 C 332.089844 230.398438 331.734375 230.375 331.734375 229.332031 C 331.734375 228.746094 332.035156 228.261719 332.398438 228.257812 C 332.890625 228.253906 332.902344 228.148438 332.449219 227.855469 C 331.988281 227.5625 332.296875 223.710938 333.652344 212.847656 C 334.65625 204.808594 335.355469 198.109375 335.203125 197.960938 C 335.054688 197.8125 334.933594 198.210938 334.933594 198.84375 M 250.417969 200 L 215.769531 200.265625 L 211.390625 221.867188 C 208.980469 233.746094 206.992188 243.886719 206.96875 244.398438 C 206.9375 245.253906 207.703125 245.332031 215.898438 245.332031 L 224.863281 245.332031 L 226.648438 241.464844 L 228.433594 237.601562 L 228.847656 241.28125 C 229.078125 243.328125 229.574219 245.15625 229.964844 245.40625 C 230.351562 245.65625 241.34375 245.800781 254.390625 245.730469 L 278.117188 245.601562 L 279.019531 239.734375 C 279.515625 236.507812 280.0625 232.96875 280.234375 231.875 L 280.542969 229.878906 L 260.375 229.738281 L 240.207031 229.601562 L 241.691406 221.332031 C 242.507812 216.785156 243.304688 212.527344 243.464844 211.867188 L 243.753906 210.667969 L 283.597656 210.667969 L 284.449219 205.226562 C 284.914062 202.234375 285.246094 199.773438 285.179688 199.757812 C 285.117188 199.746094 269.476562 199.851562 250.417969 200 M 476.585938 202.265625 C 476.441406 203.21875 476.175781 213.539062 476 225.199219 L 475.679688 246.398438 L 528.984375 246.398438 L 529.527344 244.667969 C 529.828125 243.714844 530.359375 241.851562 530.707031 240.535156 L 531.339844 238.132812 L 532.484375 242.132812 L 533.632812 246.132812 L 540.230469 246.285156 L 546.828125 246.433594 L 546.484375 242.015625 C 546.292969 239.585938 546.136719 236.101562 546.136719 234.265625 L 546.132812 230.933594 L 526.132812 230.933594 C 506.582031 230.933594 506.132812 230.910156 506.132812 229.882812 C 506.132812 228.890625 506.578125 228.820312 513.734375 228.664062 L 521.332031 228.5 L 513.734375 228.382812 L 506.132812 228.265625 L 506.132812 200.535156 L 476.847656 200.535156 L 476.585938 202.265625 M 753.109375 201.15625 C 752.988281 203.699219 753.132812 203.734375 763.429688 203.734375 L 773.140625 203.734375 L 775.980469 219.066406 C 777.542969 227.5 779.328125 237.160156 779.949219 240.535156 L 781.078125 246.667969 L 794.132812 246.964844 L 794.132812 245.425781 C 794.132812 244.574219 794.285156 242.761719 794.476562 241.390625 L 794.816406 238.898438 L 796.585938 242.78125 L 798.355469 246.667969 L 811.230469 246.964844 L 810.9375 245.75 C 810.425781 243.601562 802.667969 204.589844 802.667969 204.152344 C 802.667969 203.921875 806.988281 203.734375 812.265625 203.734375 C 821.511719 203.734375 821.867188 203.695312 821.867188 202.667969 C 821.867188 201.609375 821.511719 201.601562 787.777344 201.601562 C 761.007812 201.601562 753.632812 201.457031 753.417969 200.933594 C 753.253906 200.519531 753.136719 200.601562 753.109375 201.15625 M 582.03125 205.199219 C 582.207031 207.472656 582.769531 217.671875 583.285156 227.867188 L 584.222656 246.398438 L 597.234375 246.398438 L 597.902344 242.667969 C 598.269531 240.613281 598.726562 238.933594 598.914062 238.933594 C 599.101562 238.933594 599.796875 240.613281 600.460938 242.667969 L 601.660156 246.398438 L 614.546875 246.398438 L 614.21875 242.535156 C 614.039062 240.40625 613.402344 230.988281 612.800781 221.601562 C 612.199219 212.214844 611.582031 203.753906 611.429688 202.800781 L 611.152344 201.066406 L 581.714844 201.066406 L 582.03125 205.199219 M 657.605469 201.40625 C 657.605469 201.660156 658.6875 211.910156 660.003906 224.191406 C 661.320312 236.46875 662.398438 246.609375 662.398438 246.722656 C 662.398438 246.839844 669.15625 246.933594 677.410156 246.933594 L 692.421875 246.933594 L 692.109375 243.601562 C 691.9375 241.765625 691.515625 238.082031 691.171875 235.414062 L 690.546875 230.5625 L 682.398438 229.007812 L 686.046875 228.144531 C 688.050781 227.671875 689.804688 227.171875 689.941406 227.039062 C 690.078125 226.902344 689.816406 223.953125 689.359375 220.484375 C 688.097656 210.863281 687.707031 211.734375 693.273438 211.734375 L 698.015625 211.734375 L 698.320312 213.464844 C 698.488281 214.421875 699.476562 221.800781 700.519531 229.867188 C 701.566406 237.933594 702.539062 245.074219 702.6875 245.734375 L 702.953125 246.933594 L 732.9375 246.933594 L 732.574219 244.667969 C 732.375 243.421875 731.25 235.921875 730.078125 228 C 726.609375 204.535156 726.515625 203.960938 726.457031 204.933594 C 726.40625 205.746094 725.796875 205.867188 721.664062 205.867188 C 717.371094 205.867188 716.898438 205.765625 716.644531 204.800781 C 716.382812 203.792969 716.65625 203.726562 721.515625 203.625 L 726.667969 203.515625 L 721.910156 203.335938 C 718.183594 203.195312 717.007812 202.957031 716.488281 202.246094 C 715.875 201.410156 713.402344 201.320312 686.710938 201.140625 C 670.667969 201.035156 657.601562 201.15625 657.605469 201.40625 M 260 228.105469 C 270.523438 228.484375 281.066406 228.5 281.066406 228.132812 C 281.066406 227.914062 275.367188 227.78125 268.398438 227.84375 C 261.433594 227.902344 257.652344 228.019531 260 228.105469 M 611.902344 270.800781 C 619.773438 270.882812 632.492188 270.882812 640.171875 270.800781 C 647.851562 270.714844 641.414062 270.648438 625.867188 270.648438 C 610.320312 270.648438 604.035156 270.714844 611.902344 270.800781 M 714.800781 272.398438 C 722.058594 272.484375 733.941406 272.484375 741.199219 272.398438 C 748.460938 272.316406 742.519531 272.246094 728 272.246094 C 713.480469 272.246094 707.539062 272.316406 714.800781 272.398438 M 513.820312 298.667969 C 513.820312 303.800781 513.898438 305.898438 513.996094 303.332031 C 514.09375 300.765625 514.09375 296.566406 513.996094 294 C 513.898438 291.433594 513.820312 293.535156 513.820312 298.667969 M 690.027344 291.066406 C 693.050781 291.160156 697.851562 291.160156 700.695312 291.0625 C 703.539062 290.96875 701.066406 290.890625 695.199219 290.890625 C 689.332031 290.890625 687.007812 290.96875 690.027344 291.066406 M 621.734375 308.664062 C 625.035156 308.757812 630.433594 308.757812 633.734375 308.664062 C 637.035156 308.570312 634.332031 308.496094 627.734375 308.496094 C 621.132812 308.496094 618.433594 308.570312 621.734375 308.664062 M 303.625 343.863281 C 306.207031 343.960938 310.289062 343.960938 312.691406 343.863281 C 315.097656 343.765625 312.988281 343.683594 308 343.683594 C 303.011719 343.683594 301.046875 343.765625 303.625 343.863281 M 593.199219 369.464844 C 596.648438 369.558594 602.285156 369.558594 605.734375 369.464844 C 609.179688 369.371094 606.359375 369.296875 599.464844 369.296875 C 592.574219 369.296875 589.753906 369.371094 593.199219 369.464844 "/>
<path style=" stroke:none;fill-rule:evenodd;fill:rgb(5.882353%,6.666667%,9.411765%);fill-opacity:1;" d="M 218.121094 153.675781 C 218.113281 153.78125 213.699219 174.980469 208.316406 200.78125 L 198.527344 247.699219 L 210.816406 261.984375 L 223.101562 276.265625 L 246.175781 276.265625 C 262.25 276.265625 269.304688 276.441406 269.4375 276.84375 C 269.542969 277.160156 270.234375 273.382812 270.96875 268.445312 L 272.308594 259.464844 L 313.664062 259.332031 L 355.019531 259.195312 L 358.730469 267.863281 L 362.4375 276.535156 L 368.265625 276.6875 C 371.472656 276.769531 374.242188 277.078125 374.425781 277.375 C 374.605469 277.667969 375.066406 274.058594 375.449219 269.355469 L 376.140625 260.800781 L 457.601562 260.800781 L 457.589844 255.867188 C 457.582031 253.152344 457.355469 249.378906 457.078125 247.476562 C 456.6875 244.757812 456.730469 243.933594 457.28125 243.621094 C 458.15625 243.132812 458.933594 219.554688 458.234375 214.820312 C 457.90625 212.609375 457.957031 211.710938 458.414062 211.535156 C 458.859375 211.363281 459.160156 207.878906 459.425781 199.914062 C 459.777344 189.351562 459.6875 187.40625 458.140625 172.800781 C 457.226562 164.148438 456.371094 156.558594 456.246094 155.9375 L 456.015625 154.808594 L 417.742188 154.550781 C 396.691406 154.410156 379.402344 154.339844 379.328125 154.398438 C 379.230469 154.472656 373.085938 219.511719 371.703125 235.109375 C 371.683594 235.304688 370.542969 232.347656 369.164062 228.535156 L 366.65625 221.601562 L 359.863281 221.449219 L 353.066406 221.300781 L 353.070312 219.585938 C 353.070312 218.640625 353.789062 211.210938 354.667969 203.074219 L 356.265625 188.28125 L 344.171875 154.398438 L 324.945312 154.261719 L 305.71875 154.121094 L 305.441406 155.328125 C 305.285156 155.992188 304.742188 159.601562 304.226562 163.355469 C 303.714844 167.105469 303.109375 169.988281 302.882812 169.753906 C 302.652344 169.523438 300.917969 166.019531 299.023438 161.96875 C 297.132812 157.917969 295.496094 154.527344 295.390625 154.433594 C 295.125 154.195312 218.136719 153.441406 218.121094 153.675781 M 472.367188 165.390625 C 472.179688 171.371094 471.621094 192.464844 471.125 212.265625 L 470.21875 248.265625 L 471.386719 260.800781 C 473 278.074219 472.699219 276.800781 475.144531 276.800781 L 477.175781 276.800781 L 477.523438 272.71875 C 477.710938 270.476562 477.867188 267.355469 477.867188 265.785156 L 477.867188 262.933594 L 550.203125 262.933594 L 551.144531 255.648438 C 551.933594 249.515625 552.023438 246.273438 551.699219 235.125 L 551.316406 221.878906 L 531.257812 221.738281 L 511.199219 221.601562 L 510.894531 211.734375 L 528.78125 211.734375 C 538.617188 211.734375 546.667969 211.554688 546.667969 211.332031 C 546.667969 211.113281 547.414062 204.09375 548.328125 195.734375 C 549.871094 181.601562 549.964844 179.65625 549.667969 168.050781 C 549.492188 161.1875 549.230469 155.453125 549.085938 155.308594 C 548.941406 155.164062 531.695312 154.925781 510.765625 154.78125 L 472.707031 154.515625 L 472.367188 165.390625 M 556.03125 156.929688 C 555.875 157.886719 555.023438 165.082031 554.140625 172.917969 C 552.503906 187.425781 552.261719 193.695312 552.882812 205.25 L 553.230469 211.734375 L 561.964844 211.734375 C 568.476562 211.734375 570.757812 211.902344 570.925781 212.398438 C 571.050781 212.765625 571.761719 227.390625 572.511719 244.894531 C 573.257812 262.398438 574.03125 277.148438 574.234375 277.667969 C 574.578125 278.566406 575.003906 276.960938 577.042969 267.066406 L 577.675781 264 L 615.796875 264 L 620.695312 248.265625 L 619.429688 232 C 618.734375 223.054688 618.160156 214.953125 618.148438 214 L 618.132812 212.265625 L 624.898438 212.265625 L 629.785156 196.394531 C 635.28125 178.515625 635.089844 180.058594 633.695312 165.066406 L 632.800781 155.464844 L 556.316406 155.191406 L 556.03125 156.929688 M 649.398438 155.625 C 649.269531 155.835938 646.75 163.457031 643.804688 172.558594 L 638.441406 189.109375 L 641.617188 224.289062 C 643.359375 243.636719 644.925781 260.488281 645.09375 261.734375 L 645.398438 264 L 659.648438 264 L 659.933594 265.464844 C 660.089844 266.273438 660.371094 268.851562 660.550781 271.199219 C 661.066406 277.808594 660.578125 277.332031 666.859375 277.332031 L 672.3125 277.332031 L 675.394531 271.464844 L 678.476562 265.601562 L 703.90625 265.585938 L 729.332031 265.574219 L 740.269531 249.066406 L 739.460938 243.867188 C 739.019531 241.007812 738.53125 238.117188 738.378906 237.449219 L 738.105469 236.230469 L 744.113281 236.382812 L 750.125 236.535156 L 752.46875 251.066406 L 754.8125 265.601562 L 760.425781 265.601562 L 761.003906 268.933594 C 761.324219 270.765625 761.742188 273.40625 761.929688 274.800781 L 762.277344 277.332031 L 794.398438 277.332031 L 805.332031 264.992188 C 811.347656 258.207031 816.941406 251.847656 817.765625 250.863281 L 819.269531 249.078125 L 816.832031 237.472656 C 815.492188 231.089844 814.398438 225.507812 814.40625 225.066406 C 814.410156 224.625 817.882812 220.023438 822.121094 214.839844 L 829.824219 205.414062 L 824.386719 180.914062 L 818.945312 156.414062 L 813.074219 156.078125 C 809.84375 155.890625 792.679688 155.738281 774.933594 155.734375 L 742.664062 155.734375 L 736.308594 167.753906 C 732.816406 174.363281 729.796875 179.582031 729.601562 179.351562 C 729.402344 179.121094 728.464844 173.773438 727.511719 167.464844 C 726.558594 161.160156 725.738281 155.972656 725.6875 155.941406 C 725.257812 155.648438 649.578125 155.335938 649.398438 155.625 M 215.210938 202.707031 C 208.089844 238.160156 206.859375 244.960938 207.5 245.367188 C 207.921875 245.632812 211.941406 245.855469 216.429688 245.859375 L 224.59375 245.867188 L 228.523438 237.601562 L 228.667969 240.535156 C 228.746094 242.148438 228.933594 244.007812 229.082031 244.671875 L 229.355469 245.878906 L 253.726562 245.738281 L 278.09375 245.601562 L 279.554688 236.800781 C 280.359375 231.960938 281.027344 227.941406 281.042969 227.867188 C 281.054688 227.792969 271.941406 227.734375 260.789062 227.734375 L 240.511719 227.734375 L 240.777344 226.535156 C 240.925781 225.875 241.546875 222.574219 242.15625 219.199219 C 242.769531 215.828125 243.398438 212.527344 243.558594 211.867188 L 243.847656 210.667969 L 263.789062 210.667969 C 274.757812 210.667969 283.734375 210.542969 283.734375 210.390625 C 283.734375 209.925781 285.855469 196.628906 286.179688 195.066406 L 286.484375 193.601562 L 275.910156 193.597656 C 270.09375 193.597656 261.199219 193.441406 256.144531 193.246094 L 246.957031 192.898438 L 247.257812 191.6875 C 247.519531 190.644531 247.277344 190.398438 245.515625 189.910156 C 244.386719 189.59375 243.046875 189.339844 242.535156 189.335938 C 242.019531 189.335938 241.601562 189.109375 241.601562 188.839844 C 241.601562 188.566406 242.921875 188.179688 244.539062 187.976562 C 246.15625 187.773438 247.632812 187.359375 247.820312 187.058594 C 248.007812 186.753906 248.546875 184.441406 249.019531 181.921875 L 249.878906 177.332031 L 269.40625 177.195312 L 288.929688 177.054688 L 290.070312 169.726562 C 290.699219 165.695312 291.207031 161.980469 291.207031 161.464844 C 291.199219 160.628906 290.535156 160.535156 284.761719 160.535156 L 278.320312 160.535156 L 276.90625 163.8125 C 275.652344 166.714844 275.449219 166.945312 275.132812 165.8125 C 274.933594 165.109375 274.75 163.632812 274.71875 162.535156 L 274.667969 160.535156 L 223.6875 160.535156 L 215.210938 202.707031 M 310.6875 162.265625 C 310.527344 163.21875 309.203125 172.640625 307.746094 183.199219 C 306.285156 193.761719 303.769531 211.902344 302.148438 223.511719 C 300.527344 235.125 299.199219 244.90625 299.199219 245.246094 C 299.199219 245.660156 300.496094 245.867188 303.117188 245.867188 L 307.035156 245.867188 L 308.640625 241.757812 L 310.246094 237.644531 L 310.609375 240.289062 C 310.808594 241.742188 311.101562 243.59375 311.261719 244.398438 L 311.550781 245.867188 L 360.351562 245.867188 L 360.988281 238.667969 C 361.339844 234.707031 361.765625 230.78125 361.933594 229.941406 C 362.1875 228.667969 362.03125 228.363281 360.984375 228.082031 C 360.296875 227.898438 353.429688 227.746094 345.722656 227.742188 L 331.714844 227.734375 L 331.980469 226.535156 C 332.25 225.316406 336.4375 190.933594 336.671875 188.015625 C 336.796875 186.476562 336.699219 186.40625 333.332031 185.644531 L 329.867188 184.863281 L 333.238281 184.230469 C 335.09375 183.886719 336.804688 183.390625 337.039062 183.132812 C 337.464844 182.667969 339.746094 164.796875 339.738281 162 L 339.734375 160.535156 L 310.980469 160.535156 L 310.6875 162.265625 M 380.632812 202.792969 C 378.65625 225.75 377.042969 244.832031 377.050781 245.199219 C 377.0625 245.707031 379.238281 245.867188 386.101562 245.867188 L 395.136719 245.867188 L 396.339844 242.136719 C 397.628906 238.132812 398.117188 238.132812 398.667969 242.132812 C 398.851562 243.480469 399.1875 244.882812 399.414062 245.25 C 399.730469 245.757812 405.511719 245.992188 423.859375 246.242188 L 447.890625 246.570312 L 448.195312 242.085938 C 448.363281 239.617188 448.601562 235.5 448.726562 232.933594 L 448.949219 228.265625 L 408.414062 228.265625 L 408.714844 226.535156 C 408.882812 225.578125 409.179688 221.738281 409.378906 218 L 409.746094 211.199219 L 449.441406 211.199219 L 449.785156 206.316406 C 449.976562 203.632812 450.132812 199.792969 450.132812 197.785156 L 450.132812 194.132812 L 438.265625 194.132812 C 431.742188 194.128906 422.960938 193.972656 418.753906 193.78125 C 411.152344 193.433594 411.109375 193.421875 411.34375 192.207031 C 411.605469 190.832031 411.277344 190.636719 407.800781 190.117188 C 406.445312 189.910156 405.332031 189.558594 405.332031 189.332031 C 405.332031 189.105469 406.445312 188.753906 407.800781 188.550781 C 411.625 187.976562 411.734375 187.882812 411.734375 185.085938 C 411.734375 183.691406 411.886719 181.433594 412.074219 180.074219 L 412.410156 177.601562 L 451.199219 177.601562 L 451.199219 173.414062 C 451.199219 171.113281 451.355469 167.382812 451.546875 165.128906 L 451.894531 161.03125 L 445.28125 161.183594 L 438.667969 161.332031 L 437.523438 164.535156 C 436.414062 167.632812 436.363281 167.683594 436 166.132812 C 435.792969 165.253906 435.453125 163.8125 435.246094 162.933594 L 434.867188 161.332031 L 409.550781 161.195312 L 384.234375 161.054688 L 380.632812 202.792969 M 477.550781 161.679688 C 477.34375 162.015625 475.746094 232.535156 475.738281 241.738281 L 475.734375 246.410156 L 502.507812 246.269531 L 529.28125 246.132812 L 530.105469 242.835938 C 530.5625 241.023438 531.082031 239.394531 531.261719 239.21875 C 531.445312 239.042969 532.03125 240.585938 532.566406 242.648438 L 533.539062 246.398438 L 546.832031 246.398438 L 546.480469 239.917969 C 546.289062 236.351562 546.132812 232.269531 546.132812 230.847656 L 546.132812 228.265625 L 506.109375 228.265625 L 506.144531 207.601562 L 506.183594 186.933594 L 503.207031 186.335938 C 501.570312 186.007812 500.105469 185.617188 499.957031 185.46875 C 499.808594 185.316406 500.804688 185.027344 502.175781 184.820312 C 506.082031 184.234375 506.132812 184.1875 506.132812 181.007812 L 506.132812 178.132812 L 545.1875 178.132812 L 544.800781 170 C 544.589844 165.527344 544.375 161.820312 544.328125 161.761719 C 544.074219 161.46875 477.730469 161.386719 477.550781 161.679688 M 560.71875 165.175781 C 560.90625 167.167969 561.0625 170.898438 561.0625 173.464844 L 561.066406 178.132812 L 580.800781 178.132812 L 580.808594 180.667969 C 580.8125 182.058594 581.527344 196.398438 582.402344 212.535156 C 583.277344 228.667969 583.992188 242.886719 583.996094 244.132812 L 584 246.398438 L 597.21875 246.398438 L 597.90625 242.933594 C 598.285156 241.027344 598.746094 239.464844 598.929688 239.464844 C 599.113281 239.464844 599.742188 240.96875 600.328125 242.800781 L 601.390625 246.132812 L 607.894531 246.28125 L 614.398438 246.433594 L 614.363281 244.417969 C 614.34375 243.308594 613.324219 228 612.09375 210.398438 L 609.863281 178.398438 L 629.066406 177.867188 L 629.082031 176.464844 C 629.097656 175.144531 628.878906 175.023438 625.347656 174.382812 C 623.289062 174.011719 621.839844 173.636719 622.132812 173.554688 C 622.425781 173.46875 623.996094 173.140625 625.621094 172.820312 L 628.574219 172.238281 L 628.148438 167.355469 C 627.910156 164.671875 627.582031 162.335938 627.414062 162.171875 C 627.246094 162.003906 612.097656 161.796875 593.742188 161.710938 L 560.375 161.554688 L 560.71875 165.175781 M 653.609375 164.132812 C 653.765625 165.234375 654.972656 176.574219 656.289062 189.332031 C 659.292969 218.429688 661.765625 241.714844 662.160156 244.667969 L 662.464844 246.933594 L 677.277344 246.933594 C 685.421875 246.933594 692.207031 246.816406 692.347656 246.671875 C 692.492188 246.53125 692.179688 243.109375 691.660156 239.074219 C 691.136719 235.035156 690.699219 231.453125 690.6875 231.113281 C 690.675781 230.773438 688.988281 230.195312 686.914062 229.824219 C 682.84375 229.097656 682.894531 228.554688 687.078125 227.980469 C 688.507812 227.785156 689.792969 227.320312 689.933594 226.953125 C 690.074219 226.582031 689.816406 223.4375 689.363281 219.960938 C 688.167969 210.847656 687.746094 211.734375 693.277344 211.734375 L 698.023438 211.734375 L 698.636719 216.132812 C 698.972656 218.554688 700.027344 226.414062 700.980469 233.601562 L 702.710938 246.667969 L 717.828125 246.808594 L 732.941406 246.949219 L 732.660156 244.941406 C 731.511719 236.738281 726.851562 205.363281 726.640625 204.398438 C 726.394531 203.265625 726.121094 203.199219 721.625 203.199219 C 716.257812 203.199219 716.582031 203.480469 715.96875 198.265625 L 715.609375 195.199219 L 720.53125 195.199219 C 725.359375 195.199219 725.445312 195.179688 725.164062 194 C 725.007812 193.339844 723.855469 185.898438 722.605469 177.464844 L 720.332031 162.132812 L 653.320312 162.132812 L 653.609375 164.132812 M 746.667969 163 C 746.667969 163.875 752.816406 200.328125 753.335938 202.535156 C 753.617188 203.722656 753.699219 203.734375 763.34375 203.734375 L 773.066406 203.734375 L 777.054688 225.332031 L 781.042969 246.933594 L 793.996094 246.933594 L 794.398438 243.066406 L 794.804688 239.199219 L 798.367188 246.933594 L 804.785156 246.933594 C 808.3125 246.933594 811.199219 246.875 811.199219 246.800781 C 811.199219 246.726562 809.277344 237.105469 806.933594 225.421875 C 804.585938 213.738281 802.667969 204.078125 802.667969 203.957031 C 802.667969 203.832031 806.988281 203.734375 812.265625 203.734375 C 817.546875 203.734375 821.867188 203.554688 821.871094 203.332031 C 821.875 203.113281 821.359375 200.488281 820.722656 197.5 L 819.570312 192.066406 L 815.785156 191.390625 L 812 190.710938 L 815.085938 190.09375 C 816.78125 189.753906 818.320312 189.324219 818.503906 189.140625 C 818.6875 188.957031 817.597656 183.082031 816.085938 176.085938 C 814.570312 169.089844 813.332031 163.207031 813.332031 163.015625 C 813.332031 162.824219 806.851562 162.667969 798.933594 162.667969 C 791.011719 162.667969 784.535156 162.726562 784.539062 162.800781 C 784.542969 162.875 785.582031 168.273438 786.855469 174.800781 L 789.167969 186.667969 L 784.507812 186.667969 C 780.113281 186.667969 779.832031 186.597656 779.574219 185.464844 C 779.425781 184.804688 778.398438 179.441406 777.292969 173.542969 L 775.28125 162.820312 L 769.441406 162.484375 C 766.230469 162.300781 763.390625 162.28125 763.136719 162.441406 C 762.878906 162.597656 762.648438 163.617188 762.628906 164.699219 C 762.554688 168.691406 761.925781 168.886719 760.414062 165.382812 L 759.011719 162.132812 L 752.839844 162.132812 C 747.5 162.132812 746.667969 162.25 746.667969 163 M 684.472656 180.132812 C 684.628906 180.941406 685.015625 184 685.328125 186.933594 C 686.230469 195.417969 685.671875 194.667969 691.101562 194.667969 L 695.777344 194.667969 L 694.726562 186.667969 L 693.671875 178.667969 L 684.183594 178.667969 L 684.472656 180.132812 M 476.996094 292.265625 C 476.996094 295.347656 477.085938 296.605469 477.191406 295.066406 C 477.300781 293.527344 477.300781 291.007812 477.191406 289.464844 C 477.085938 287.925781 476.996094 289.1875 476.996094 292.265625 M 476.464844 318.132812 C 476.46875 321.359375 476.554688 322.609375 476.660156 320.914062 C 476.765625 319.214844 476.765625 316.578125 476.660156 315.046875 C 476.550781 313.519531 476.464844 314.90625 476.464844 318.132812 M 335.632812 313.464844 C 341.152344 313.554688 350.035156 313.550781 355.367188 313.464844 C 360.703125 313.378906 356.1875 313.308594 345.332031 313.308594 C 334.480469 313.308594 330.117188 313.378906 335.632812 313.464844 M 475.929688 344 C 475.929688 347.078125 476.019531 348.339844 476.125 346.800781 C 476.234375 345.257812 476.234375 342.742188 476.125 341.199219 C 476.019531 339.660156 475.929688 340.921875 475.929688 344 "/>
<path style=" stroke:none;fill-rule:evenodd;fill:rgb(84.313726%,79.607844%,47.843137%);fill-opacity:1;" d="M 279.621094 176.929688 C 281.316406 177.035156 283.957031 177.03125 285.488281 176.925781 C 287.015625 176.820312 285.625 176.730469 282.398438 176.734375 C 279.171875 176.734375 277.921875 176.820312 279.621094 176.929688 M 431.066406 177.460938 C 432.753906 177.566406 435.511719 177.566406 437.199219 177.460938 C 438.886719 177.355469 437.507812 177.269531 434.132812 177.269531 C 430.761719 177.269531 429.378906 177.355469 431.066406 177.460938 M 306.039062 197.734375 L 305.859375 200 L 334.800781 200 L 335.132812 198.332031 C 335.316406 197.417969 335.464844 196.464844 335.464844 196.214844 C 335.464844 195.96875 328.886719 195.699219 320.84375 195.617188 L 306.21875 195.464844 L 306.039062 197.734375 M 216.828125 196.398438 C 216.714844 196.765625 216.511719 197.730469 216.382812 198.535156 L 216.148438 200.007812 L 250.605469 199.871094 L 285.066406 199.734375 L 285.230469 197.734375 L 285.398438 195.734375 L 251.214844 195.734375 C 224.335938 195.734375 216.988281 195.875 216.828125 196.398438 M 381.332031 198.398438 L 381.332031 200.535156 L 449.601562 200.535156 L 449.601562 196.265625 L 381.332031 196.265625 L 381.332031 198.398438 M 476.800781 198.398438 L 476.800781 200.535156 L 506.132812 200.535156 L 506.132812 196.265625 L 476.800781 196.265625 L 476.800781 198.398438 M 581.867188 198.933594 L 581.867188 201.066406 L 611.332031 201.066406 L 611 199.398438 C 610.816406 198.484375 610.667969 197.523438 610.667969 197.265625 C 610.667969 197.011719 604.1875 196.800781 596.265625 196.800781 L 581.867188 196.800781 L 581.867188 198.933594 M 657.601562 198.867188 L 657.601562 201.066406 L 680.449219 201.066406 C 693.015625 201.066406 706.207031 201.222656 709.761719 201.414062 L 716.226562 201.761719 L 715.902344 199.679688 C 715.726562 198.535156 715.554688 197.566406 715.523438 197.527344 C 715.492188 197.484375 702.445312 197.277344 686.535156 197.0625 L 657.601562 196.671875 L 657.601562 198.867188 M 752.773438 198 C 752.886719 198.367188 753.121094 199.328125 753.300781 200.132812 L 753.621094 201.601562 L 821.40625 201.601562 L 821.058594 200.398438 C 820.871094 199.738281 820.597656 198.78125 820.453125 198.265625 C 820.210938 197.390625 818.128906 197.332031 786.378906 197.332031 C 759.574219 197.332031 752.609375 197.472656 752.773438 198 M 245.464844 228.128906 C 247.445312 228.230469 250.6875 228.230469 252.667969 228.128906 C 254.644531 228.027344 253.027344 227.941406 249.066406 227.941406 C 245.105469 227.941406 243.488281 228.027344 245.464844 228.128906 M 434.265625 228.664062 C 436.246094 228.765625 439.488281 228.765625 441.464844 228.664062 C 443.445312 228.558594 441.828125 228.476562 437.867188 228.476562 C 433.90625 228.476562 432.285156 228.558594 434.265625 228.664062 "/>
</g>
</svg>
